<?xml version="1.0" encoding="UTF-8" standalone="no"?>
<svg
   viewBox="0 0 500 750"
   version="1.1"
   id="svg9"
   sodipodi:docname="CYP_portrait.svg"
   inkscape:version="1.2.2 (b0a8486541, 2022-12-01)"
   width="500"
   height="750"
   xmlns:inkscape="http://www.inkscape.org/namespaces/inkscape"
   xmlns:sodipodi="http://sodipodi.sourceforge.net/DTD/sodipodi-0.dtd"
   xmlns:xlink="http://www.w3.org/1999/xlink"
   xmlns="http://www.w3.org/2000/svg"
   xmlns:svg="http://www.w3.org/2000/svg">
  <defs
     id="defs13" />
  <sodipodi:namedview
     id="namedview11"
     pagecolor="#ffffff"
     bordercolor="#000000"
     borderopacity="0.25"
     inkscape:showpageshadow="2"
     inkscape:pageopacity="0.0"
     inkscape:pagecheckerboard="0"
     inkscape:deskcolor="#d1d1d1"
     showgrid="false"
     inkscape:zoom="0.39333333"
     inkscape:cx="451.27119"
     inkscape:cy="300"
     inkscape:window-width="1340"
     inkscape:window-height="1041"
     inkscape:window-x="576"
     inkscape:window-y="0"
     inkscape:window-maximized="1"
     inkscape:current-layer="svg9" />
  <path
     fill="#ffffff"
     d="M 500,0 V 750 H 0 V 0 Z"
     id="path2"
     style="stroke-width:0.833333" />
  <path
     id="a"
     d="M 77.71583,385.91667 A 0.84166667,0.84166667 0 0 1 77.92,385.6275 l 0.0975,-0.10417 a 17.935833,17.935833 0 0 1 1.36917,-1.31833 c 1.26083,-1.11 3.10666,-2.59917 4.7375,-3.90833 3.23583,-2.59584 6.02333,-4.74084 6.54833,-5.145 l 0.86,-0.66084 1.99583,-6.4725 2.20334,-4.72583 2.83833,2.525 -3.71333,8.67333 -1.32834,6.4725 -8.80333,11.96917 -0.008,-0.009 c -0.02,-0.0242 -1.44833,-1.74083 -3,-3.44666 -0.69167,-0.76084 -1.58333,-1.72 -2.31917,-2.3975 -0.29916,-0.27917 -0.61666,-0.53834 -0.95,-0.775 a 7.5033333,7.5033333 0 0 0 -0.73333,-0.3875 m 13.35,-44.45 a 33.025,33.025 0 0 1 4.63917,-16.57917 v -0.006 h 0.007 a 8.5333333,8.5333333 0 0 1 2.58334,2.39833 c 1.1875,1.6175 2.60666,4.535 2.625,9.25 v 0.0975 c 0,5.58333 -1.89834,12.41667 -5.6425,20.31083 a 30.018333,30.018333 0 0 1 -4.21167,-15.47166 l -0.008,0.008 z m 5.425,-24.475 A 3.5341667,3.5341667 0 0 1 97.60083,314.35 5.3658333,5.3658333 0 0 1 100,313.16667 a 12.213333,12.213333 0 0 1 3.51417,-0.2925 3.6133333,3.6133333 0 0 1 0.295,1.30166 v 0.0933 c 0,2.0925 -1.815,3.74166 -3.61417,4.44833 a 3.625,3.625 0 0 1 -2.55583,0.22833 2.0141667,2.0141667 0 0 1 -1.14167,-1.95 z m 4.99167,43.06666 c 2.06583,-14.46583 7.29583,-20.5975 11.31916,-23.19416 a 13.0875,13.0875 0 0 1 8.3,-2.195 h 0.0117 v 0.0108 c 0.16667,0.72667 0.24917,1.47 0.24417,2.215 0,3.84833 -1.93584,13.69167 -19.86834,23.16667 l -0.0117,0.006 0.008,-0.0167 z m 2.86666,-29.65 c 0,-6.18 1.06667,-10.885 3.16667,-13.985 a 8.5866667,8.5866667 0 0 1 3.4375,-3.07166 5.625,5.625 0 0 1 1.68583,-0.495 18.92,18.92 0 0 1 1.375,6.47083 c 0.015,0.31917 0.0242,0.64083 0.025,0.97833 0,4.77667 -1.55833,12.04 -8.98333,19.705 l -0.007,0.007 v -0.009 a 75.028333,75.028333 0 0 1 -0.7,-9.60834 z m 1.15,-29.925 c 0,-6.51666 1.99,-15.46916 7.5725,-21.0525 l 0.007,-0.006 v 0.0167 a 65.405833,65.405833 0 0 1 1.71833,12.93583 c 0.01,0.40667 0.015,0.81667 0.0158,1.22917 0,6.11 -1.185,10.78666 -3.52084,13.90166 a 4.1183333,4.1183333 0 0 1 -2.31916,1.815 1.9,1.9 0 0 1 -1.79167,-0.88 c -1.05917,-1.4025 -1.62417,-3.91 -1.68083,-7.45416 l -0.0167,-0.5 z m 10.83334,-21.11666 a 2.6716667,2.6716667 0 0 1 0.9725,-2.06584 4.8916667,4.8916667 0 0 1 2.10166,-0.92333 11.915,11.915 0 0 1 3.06167,-0.2425 h 0.015 c 0.14667,0.31833 0.225,0.66417 0.22917,1.01417 a 3.1533333,3.1533333 0 0 1 -0.965,2.1575 5.7966667,5.7966667 0 0 1 -2.20417,1.40666 3.3583333,3.3583333 0 0 1 -2.19583,0.15 1.5958333,1.5958333 0 0 1 -1.00834,-1.5 z m 1.1,48.775 a 3.5341667,3.5341667 0 0 1 1.11133,-2.64184 5.375,5.375 0 0 1 2.39833,-1.185 12.213333,12.213333 0 0 1 3.51417,-0.2925 3.6133333,3.6133333 0 0 1 0.295,1.30167 v 0.0933 c 0,2.0925 -1.815,3.74167 -3.61417,4.44833 a 3.625,3.625 0 0 1 -2.55583,0.22834 2.0108333,2.0108333 0 0 1 -1.14167,-1.95 z m 0.98383,-23.75851 c 0.46167,-13.11416 4.18917,-19.91666 7.23583,-23.32 A 15.25,15.25 0 0 1 130.19,277.53 a 9.7075,9.7075 0 0 1 2.03167,-0.75667 l 0.007,0.0175 a 11.2175,11.2175 0 0 1 0.4825,3.2375 v 0.30667 c 0,4.4225 -1.8575,13.42583 -14.29417,24.04333 h -0.008 z m 1.325,14.24167 c 1.60667,-10.55083 6.13583,-16.52833 9.65417,-19.685 a 20.1475,20.1475 0 0 1 7.28166,-4.34417 15.518333,15.518333 0 0 1 0.39084,3.25 c 0,0.14084 0.006,0.2875 0.006,0.43667 0,0.14917 0,0.30417 -0.006,0.46083 -0.11584,5.30667 -2.51917,14.945 -17.32084,19.87917 v 0.008 z m 5.06667,-54.16667 A 41.113333,41.113333 0 0 1 126,254.49167 c 1.38167,-5.52417 3.49083,-7.89417 5.0175,-8.90917 a 5.265,5.265 0 0 1 2.11167,-0.85917 3.5683333,3.5683333 0 0 1 0.89416,-0.0258 l 0.009,0.0258 a 37.698333,37.698333 0 0 1 1.10667,8.72 c 0,0.19917 0.005,0.4 0.005,0.60417 a 36.505,36.505 0 0 1 -0.69167,7.13667 22.621667,22.621667 0 0 1 -8.45,13.3775 h -0.007 v -0.0108 a 41.3625,41.3625 0 0 1 -1.18333,-10.1 z m 8.9,24.49167 a 3.5366667,3.5366667 0 0 1 1.08333,-2.64333 5.4083333,5.4083333 0 0 1 2.42333,-1.18334 12,12 0 0 1 3.4875,-0.2925 3.6133333,3.6133333 0 0 1 0.295,1.30167 v 0.0933 c 0,2.08834 -1.81583,3.74 -3.615,4.44917 a 3.5416667,3.5416667 0 0 1 -2.52833,0.2025 1.9633333,1.9633333 0 0 1 -1.15,-1.925 z m 2.525,-18.41667 a 40.1875,40.1875 0 0 1 4.35416,-9.9725 c 2.84417,-4.62 7.875,-10.27166 15.69167,-10.96083 v 0.0117 a 5.95,5.95 0 0 1 0.12833,1.065 c 0,0.0833 0.005,0.18083 0.005,0.27833 0,1.38 -0.38833,4.205 -2.98666,7.6225 -3.31667,4.35 -9.1,8.36667 -17.20834,11.95833 z m 0.44166,12.025 a 32.5225,32.5225 0 0 1 5.07,-7.89083 50.6325,50.6325 0 0 1 19.44167,-13.93 6.415,6.415 0 0 1 0.59833,3.04583 c -0.0567,2.00917 -0.89166,5.06917 -4.5525,8.46167 -4.20583,3.89667 -11.11666,7.375 -20.5425,10.33333 l -0.0267,0.008 0.008,-0.025 z M 137.58167,251.4 c 0,-4.0175 2.17916,-5.3925 3.11666,-5.7975 a 6.4858333,6.4858333 0 0 1 3.08917,-0.46167 h 0.0167 a 8.8458333,8.8458333 0 0 1 0.26166,2 v 0.1375 a 8.265,8.265 0 0 1 -3.20083,6.73667 c -0.31583,0.2125 -1.41167,0.86417 -2.2675,0.325 -0.675,-0.43333 -1.01667,-1.41667 -1.01667,-2.94167 z m 11.22583,-8.9 a 53.261667,53.261667 0 0 1 0.79333,-9.28417 c 0.65084,-3.57833 3.69334,-5.60666 6.13,-6.6775 a 21.291667,21.291667 0 0 1 5.21167,-1.5 v 0.01 c -0.325,11.06834 -3.55917,16.29584 -6.21417,18.73167 a 9.7608333,9.7608333 0 0 1 -5.76833,2.67167 v -0.007 c 0,-0.0167 -0.15,-1.575 -0.15,-3.95 z m 11.51667,11.525 a 44.889167,44.889167 0 0 1 3.52333,-2.5275 c 2.0375,-1.31083 4.16667,-2.52333 5.90333,-2.52333 1.68,0 5.22167,-0.395 7.1825,-0.63084 2.4875,-0.29833 4.61667,-0.6 4.7975,-0.625 v 0.0108 c -0.1025,0.28083 -2.595,6.92333 -8.82583,6.92333 -6.23083,0 -12.51167,-0.615 -12.57417,-0.62083 h -0.009 v -0.008 z m 0.59166,-8.60833 c 0,-0.07 0.007,-0.13917 0.0175,-0.20834 0.3275,-1.96333 1.82834,-5.41666 4.015,-9.2275 2.42834,-4.235 5.03,-7.67416 7.32584,-9.68333 2.09333,-1.83333 5.38083,-2.91667 9.77166,-3.23333 a 36.329167,36.329167 0 0 1 5.96917,0.0725 3.4458333,3.4458333 0 0 1 0.16667,1.09583 c -0.0242,1.47 -0.68584,3.03917 -2.145,5.1575 a 41.469167,41.469167 0 0 1 -4.595,5.40833 82.82,82.82 0 0 1 -6.6425,6 l -0.0333,0.0267 c -0.39583,0.22083 -3.80916,2.11417 -7.13166,3.58917 a 22.961667,22.961667 0 0 1 -4.78834,1.68666 c -0.48416,0.145 -1,0.145 -1.48416,0 a 0.75166667,0.75166667 0 0 1 -0.37334,-0.32083 c -0.05,-0.11583 -0.0758,-0.24083 -0.075,-0.36667 z"
     fill="#4e5b31"
     style="stroke-width:0.833333" />
  <use
     xlink:href="#a"
     transform="matrix(1,0,0,-1,0,750)"
     id="use5" />
  <path
     d="m 413.36083,605.94333 -0.78166,-1.9625 -0.30667,-0.76916 0.13083,-2.37834 -1.06916,-2.2275 -2.69917,-3.95 -0.125,-0.17416 -0.38417,-1.4725 0.59,-1.3675 -0.35333,-0.77667 -1.6,-0.2675 -1.14917,-0.73917 -0.63916,-0.91 -0.3225,-3.1525 -1.37084,-2.65833 0.92584,-3.45833 -0.62917,-1.60667 -3.07667,-3.41667 -0.82666,-1.74583 0.035,-0.61 0.11916,-2.315 -0.32,-0.9775 -1.41083,-1.46 -0.215,-2.7625 -0.59583,-0.86083 -2.71667,-1.34834 -1.50667,-1.46083 -0.17666,-0.83333 0.33333,-0.90584 -0.12,-0.68083 -1.73833,-0.30833 -0.72834,-0.66084 -0.63666,-1.84916 -1.23084,-1.4775 -0.66666,-1.29667 0.0433,-1.73667 v -0.39916 l -0.955,-1.73 -0.285,-3.25 -1.29083,-1.35334 -0.27584,-0.29833 -0.38166,-0.63167 -0.61667,-1.03333 -0.15333,-0.25 0.2225,-1.25 -0.5775,-1.45833 0.9075,-0.59 -0.60584,-1.00917 -0.0575,-1.33333 0.74084,-1.66667 0.565,-1.26833 -0.13417,-0.9275 -1.61667,-0.3225 -0.17166,-0.0325 -1.2975,-0.975 -1.1025,-1.82 -0.3225,-0.25 -2.67334,-2.07084 -4.13833,-3.935 -1.69,-3.3275 -1.04917,-3.44916 -1.98333,-2.41667 -3.13917,-6.33333 -4.9775,-9.99584 -0.655,-2.04416 -0.46833,-2.93334 -1.92667,-5.23166 -1.3925,-4.61584 -0.0783,-0.25666 -0.27667,-0.91667 -1.96916,-6.50833 0.32,-3.02917 -0.65167,-1.79417 0.51833,-4.67083 -0.0642,-3.25 -0.4275,-2.05583 -1.85334,-3.86417 -3.135,-6.5225 -1.97166,-2.155 -1.75,-3.35583 -1.24417,-3.92917 1.65083,0.009 0.07,-0.0233 -0.43083,-1.36333 -0.31083,-0.98417 -0.49167,-3.1875 v -1.77333 l 0.32,-1.10083 -0.0575,-0.16667 -2.14083,-6.515 -0.70167,-7.26583 -1.16667,-3.63584 0.0433,-2.71666 -0.505,-1.69834 -0.4075,-3.33333 0.3175,-1.19 0.0733,-0.26833 -0.425,-9.79167 0.50583,-4.47667 -0.48583,-2.13666 1.205,-3.58334 0.60583,-5.22416 0.36584,-1.22084 0.815,-2.75 -0.71584,-1.2425 -0.0992,-0.93 0.80583,-2.2225 0.02,-0.8 -0.66667,-1.83333 0.27084,-1.05583 0.78166,-0.98084 0.3425,-2.30083 1.17834,-1.40167 -1.03834,-7.83333 0.625,-2.12583 2.07667,-7.12834 -0.0575,-1.13416 -1.05917,-1.41667 -0.77416,-2.12333 -0.47917,-1.84334 -0.0833,-2.51 0.765,-2.91666 1.45666,-3.005 0.26417,-1.11084 -0.25,-2.47833 -0.0683,-0.75833 2.44333,-4.555 3.66667,-5.86834 1.91666,-3.98166 0.2425,-1.495 -0.71083,-0.20084 -2.33333,0.74167 -2.31167,0.25 -2.13583,-0.0758 -1.3225,-0.0408 -1.1875,0.37167 -1.59334,1.4375 -1.6,0.59917 -4.40333,0.43833 -4.46833,-0.005 -7.12584,-0.69917 -1.08333,-0.23583 -3.69167,-0.83333 -3.39083,-0.76167 -9.0275,-2.955 -1.11917,-0.81167 -1.35916,-1.9925 -3.07334,-4.51583 -1.91666,-3.325 -0.43584,-1.0525 -0.20416,-2.69917 0.0833,-1.68166 1.13417,-2.09417 0.52916,-2.05583 1.93667,-2.69334 0.62,-3 1.89833,-3.28416 1.0275,-0.855 0.16667,-1.78834 0.74417,-2.48 h 0.004 l 0.2725,-0.91083 0.18334,-0.62917 0.0833,-3.16666 1.36167,-2.95 0.375,-1.55334 0.1075,-2.1225 -1.0325,-2.22166 -0.52417,-1.12584 0.565,-1.4225 -0.0642,-1.02916 -1.7625,-1.16667 -0.26916,-0.14333 -0.425,-0.80334 0.0142,-1 0.0208,-0.7825 -0.37,-0.84666 -0.49417,-1.14 -0.43917,-1.00667 -0.2125,-0.49167 0.008,-0.008 -0.0608,-0.3025 -0.0933,-0.5375 -0.1275,-0.66667 0.68667,-1.175 0.36833,-0.625 0.21333,-1.0475 -0.4075,-0.56416 -1.91666,-0.11084 -1.14834,-0.515 -1.445,-1.63416 -1.4625,-1.66084 -1.70583,-1.1575 -6.99167,-3.06333 -2.82083,-1.91667 -0.6575,-0.59583 -2.21667,-2.015 -1.38083,-1.78 -3.17917,-4.10167 -1.45083,-3.8825 -0.68333,-3.34416 -0.007,-1.62584 0.41,-3.08333 0.85,-2.76917 1.90167,-3.04166 2.68083,-3.33334 4.77,-4.82833 0.41083,-0.68333 0.095,-0.1425 0.9725,-1.52084 -0.0292,-1.12833 -0.72834,-0.44167 -1.0525,-0.24166 -0.93333,-0.20417 -5.30583,-0.55333 -0.3075,0.0408 -2.185,0.29083 -5.125,3.66667 -2.7225,1.13167 -0.31084,0.18583 -1.27083,0.75667 -0.96917,0.57583 -0.0983,0.0575 -3.74,1.25 -2.11167,-0.88083 -1.41666,0.445 -0.86417,-1.11334 -1.22083,-0.20416 -4.1275,3.2925 -1.82084,0.71833 -2.52416,-0.8025 -1.3925,-1.28 -0.38084,-0.3575 -1.06666,0.18 -1.3625,1.515 -2.29167,2.57417 -3.405,1.3725 -0.91667,1.04416 0.25834,1.21334 -0.515,0.675 0.0175,1.02333 -1.00667,1.00667 -0.31583,0.65166 -0.51334,1.03 -1.06,0.81417 -3.25916,0.18 -4.05,1.51833 -2.19584,0.0233 -0.31166,0.008 -1.62334,0.945 -1.28166,0.29667 -3.39084,-0.5 -1.08833,1.20416 0.26667,1.30584 -0.13334,0.84333 -1.12833,1.355 -2.5,1.64083 0.235,1.605 -0.49083,1.01834 -4.445,4.91666 -0.56334,1.11584 -0.035,0.0617 -0.4025,0.8025 -1.00666,1 1.02666,1.54667 0.0175,0.17167 0.14834,1.68166 -0.5,0.73834 -0.9575,1.41666 0.0242,1.86167 -1.2375,4.03667 -0.4525,1.76583 -2.20666,3.55083 -0.93334,1.50917 -0.72583,0.89333 -0.9675,1.18667 -1.02,2.37083 -0.48667,2.03334 -0.26166,1.10166 -0.32,0.83334 0.0517,0.0208 v 0.0117 l -0.0525,-0.02 -1.68583,4.40333 -0.55667,2.385 -0.8125,2.20667 -0.58333,1.60583 -0.0192,1.17833 1.40167,1.66667 0.0933,1.61417 -0.33333,1.34083 0.21917,1.30833 1.27583,2.07084 0.59917,0.40416 0.69916,1.46834 0.615,4.95333 -0.47,1.4475 1.61667,3.71667 -0.6925,2.49 0.78167,2.20416 -1.07,4.81584 -0.90084,1.28 -1.6375,1.43083 -0.007,0.175 -0.0308,1.59333 -1.10917,-0.66666 -2.20583,2.1025 -2.87083,1.89916 -0.37917,0.12834 -4.05333,1.38083 -1.43584,1.02667 -2.00416,0.71833 -1.30667,0.035 -0.85167,-1.11667 -0.48583,-0.18333 -0.18,-0.0633 -0.54583,0.22666 0.23,0.42167 0.44416,0.8025 0.15167,0.97667 -0.18333,1.72166 -0.11917,1.13667 0.89083,1.795 0.59167,1.18917 -0.8225,1.91083 0.0233,2.1 -0.3925,0.88167 -1.13166,2.5 -0.12,1.27416 0.30916,0.47084 0.71334,0.3 0.83333,-0.15417 1.09917,-0.95917 2.44833,-2.10916 1.25833,-0.86334 1.8221,-0.65744 2.33,-0.20333 1.57083,-0.145 2.06417,0.26167 0.73667,0.56666 1.64,0.41667 v 0.007 l 0.42916,0.1075 1.555,1.17167 1.99417,3.10333 2.985,3.33333 1.7375,2.635 1.17667,2.71667 0.33333,0.0725 -0.12167,0.3025 2.34917,6.91 0.0133,0.11417 0.53584,3.07666 -1.4625,20.76667 0.2325,0.77 h 0.005 l 1.94166,0.69167 0.36,0.3725 0.235,0.25 1.005,2.28333 0.1525,1.0675 -0.73166,2.96333 -0.29917,1.21334 1.08917,1.94333 -0.0233,1.37833 1.555,2.8475 -0.0442,1.75917 0.2675,0.66667 2.4625,3.42666 0.94583,3.30084 0.45667,0.85833 0.16666,0.3025 1.78667,3.38333 1.65083,2.14917 0.98584,1.855 0.52416,2.03167 0.37417,5.31666 1.78167,1.06917 0.305,2.28667 1.55833,1.38083 0.6425,1.58333 1.63167,1.1325 1.3675,0.94917 0.7675,1.32583 0.26666,4.25 -0.62416,5.0375 0.40416,0.66667 4.0625,1.13833 0.7625,1.19167 4.67667,3.20917 1.70417,0.0108 h 1.42336 l 2.02667,0.5275 3.65916,-0.35833 3.705,0.425 4.70834,1.995 1.89916,1.7575 1.91667,2.83333 0.6275,1.44083 0.34333,2.04084 H 265.75 l 0.0508,0.3 0.0892,0.52 0.0967,7.0275 c 0.0725,0.0975 0.035,2.55583 0.035,2.55583 l 0.0317,2.34333 -1.05333,5.93 -0.0733,0.42167 -0.64917,2 -1.7975,2.31167 -2.39083,2.44833 -0.44584,0.45917 -0.66666,1.58333 -0.20917,0.47917 0.20917,1.30916 0.97083,1.86417 1.18917,1.40667 1.0475,1.91666 0.0667,0.0467 1.62334,1.07917 0.0333,0.0325 -0.006,0.0233 h 0.009 v -0.0183 l 0.64584,0.42583 1.44416,3.70583 0.25,4.35834 0.265,0.49 0.14584,0.2725 1.3525,1.15166 0.008,1.07917 -0.945,2.6125 0.365,1.83333 -0.58333,1.45834 0.13416,1.13333 0.25,2.1375 -1.61416,2.295 -0.16667,1.3375 -2.75833,4.715 -0.04,0.245 -0.0233,0.12667 -0.045,0.27 0.16667,0.55916 0.24083,0.83334 0.0325,0.11 -0.14583,0.105 -0.75583,0.53583 -0.105,0.735 1.16083,0.87 0.52667,-0.34583 0.19166,-0.13084 0.3425,-1.68416 2.58334,-1.5125 1.55083,1.44 2.77167,-2.25917 0.45916,-0.375 0.195,-0.1275 1.18584,-0.78083 6.02916,-3.955 4.1125,-5.15167 1.44334,-1.80417 0.008,-0.0117 0.5,-0.63167 2.79833,-2.75 2.60834,-1.965 0.56166,-0.2575 0.885,-0.40583 2.565,-1.1775 1.58334,-2.05167 1.82583,-1.67167 0.1075,-0.0833 4.68833,-3.45 0.78584,-0.56667 0.47083,-0.815 0.0117,-1.72166 0.16666,-0.16667 0.10084,-0.0967 0.0617,0.0583 0.82084,0.82583 0.23166,0.92083 0.9075,0.39667 5.08334,-1.75667 0.1775,-0.0117 1.625,-0.13084 7.37916,1.43167 0.89917,0.18333 4.965,2.44 1.23833,1.51167 3.24334,1.65 2.07333,1.41667 1.31833,1.35416 0.14,0.23667 1.48,2.445 0.28917,2.05417 0.27583,1.95666 -1.05333,3.41667 0.0633,3.25 0.0675,0.63417 0.16667,1.475 0.76417,2.42583 0.70666,1.145 0.91084,0.59417 4.15583,1.23916 1.3225,0.39834 1.43667,0.76416 5.09,4.42167 3.09166,3.3425 5.51084,7.51583 2.19916,3.67917 1.1225,1.87833 7.455,16.77167 4.41667,4.35833 2.29833,2.27084 2.69584,4.0175 1.92583,4.70083 3.20167,4.045 1.11166,0.88333 3.58334,1.11334 0.22416,0.9275 1.81167,0.83333 0.515,0.23833 2.32667,3.30084 0.18583,0.37333 6.425,12.82333 -0.25583,1.86334 1.49416,1 0.62584,3.73083 0.11666,0.68667 0.45917,0.91666 1.33333,0.7825 h 0.26334 l 3.56083,0.1075 0.9625,0.79667 2.34667,0.43417 0.54166,0.40916 0.56334,0.4275 0.7425,1.05667 0.4425,-0.18333 z"
     fill="#d57800"
     id="path7"
     style="stroke-width:0.833333" />
</svg>
