<?xml version="1.0" encoding="UTF-8" standalone="no"?>
<svg
   viewBox="0 0 500 750"
   version="1.1"
   id="svg23"
   sodipodi:docname="GEO_portrait.svg"
   inkscape:version="1.2.2 (b0a8486541, 2022-12-01)"
   width="500"
   height="750"
   xmlns:inkscape="http://www.inkscape.org/namespaces/inkscape"
   xmlns:sodipodi="http://sodipodi.sourceforge.net/DTD/sodipodi-0.dtd"
   xmlns:xlink="http://www.w3.org/1999/xlink"
   xmlns="http://www.w3.org/2000/svg"
   xmlns:svg="http://www.w3.org/2000/svg">
  <sodipodi:namedview
     id="namedview25"
     pagecolor="#ffffff"
     bordercolor="#000000"
     borderopacity="0.25"
     inkscape:showpageshadow="2"
     inkscape:pageopacity="0.0"
     inkscape:pagecheckerboard="0"
     inkscape:deskcolor="#d1d1d1"
     showgrid="false"
     inkscape:zoom="0.59"
     inkscape:cx="127.9661"
     inkscape:cy="554.23729"
     inkscape:window-width="1340"
     inkscape:window-height="1041"
     inkscape:window-x="576"
     inkscape:window-y="0"
     inkscape:window-maximized="1"
     inkscape:current-layer="svg23" />
  <defs
     id="defs9">
    <g
       id="c">
      <clipPath
         id="a">
        <path
           d="m -109,104 a 104,104 0 0 0 0,-208 h 218 a 104,104 0 0 0 0,208 z"
           id="path2" />
      </clipPath>
      <path
         id="b"
         d="M -55,74 A 55,55 0 0 1 55,74 V -74 a 55,55 0 0 1 -110,0 z"
         clip-path="url(#a)" />
      <use
         xlink:href="#b"
         transform="rotate(90)"
         id="use6" />
    </g>
  </defs>
  <path
     fill="#ffffff"
     d="M 500.68457,-0.31236345 V 751.02558 H -0.23363116 V -0.31236345 Z"
     id="path11"
     style="stroke-width:2.50452" />
  <path
     d="M 500.68457,325.26742 H 300.31728 V -0.31236345 H 200.13364 V 325.26742 H -0.23363116 V 425.44581 H 200.13364 V 751.02558 H 300.31728 V 425.44581 h 200.36729 z"
     fill="#ff0000"
     id="path13"
     style="stroke-width:2.50452" />
  <use
     xlink:href="#c"
     transform="matrix(0,2.5044598,-2.5045911,0,401.87845,161.10006)"
     fill="#ff0000"
     id="use15" />
  <use
     xlink:href="#c"
     transform="matrix(0,2.5044598,-2.5045911,0,98.572465,589.61316)"
     fill="#ff0000"
     id="use17" />
  <use
     xlink:href="#c"
     transform="matrix(0,2.5044598,-2.5045911,0,401.87845,589.61316)"
     fill="#ff0000"
     id="use19" />
  <use
     xlink:href="#c"
     transform="matrix(0,2.5044598,-2.5045911,0,98.572465,161.10006)"
     fill="#ff0000"
     id="use21" />
</svg>
