<?xml version="1.0" encoding="UTF-8" standalone="no"?>
<svg
   viewBox="0 0 500 750"
   version="1.1"
   id="svg8"
   sodipodi:docname="KOS_portrait.svg"
   inkscape:version="1.2.2 (b0a8486541, 2022-12-01)"
   width="500"
   height="750"
   xmlns:inkscape="http://www.inkscape.org/namespaces/inkscape"
   xmlns:sodipodi="http://sodipodi.sourceforge.net/DTD/sodipodi-0.dtd"
   xmlns="http://www.w3.org/2000/svg"
   xmlns:svg="http://www.w3.org/2000/svg">
  <defs
     id="defs12" />
  <sodipodi:namedview
     id="namedview10"
     pagecolor="#ffffff"
     bordercolor="#000000"
     borderopacity="0.25"
     inkscape:showpageshadow="2"
     inkscape:pageopacity="0.0"
     inkscape:pagecheckerboard="0"
     inkscape:deskcolor="#d1d1d1"
     showgrid="false"
     inkscape:zoom="0.39333333"
     inkscape:cx="420.76271"
     inkscape:cy="300"
     inkscape:window-width="1340"
     inkscape:window-height="1041"
     inkscape:window-x="576"
     inkscape:window-y="0"
     inkscape:window-maximized="1"
     inkscape:current-layer="svg8" />
  <path
     fill="#244aa5"
     d="M 500,0 V 750 H 0 V 0 Z"
     id="path2"
     style="stroke-width:0.862581" />
  <path
     d="m 341.55417,378.784 c -3.4175,2.92916 -6.83334,4.89 -10.9875,4.89 -1.21584,-2.45917 -1.71167,-5.85667 -3.90834,-7.8175 1.7125,12.20916 -12.445,14.64166 -7.0725,28.315 -1.96083,0.49666 -3.6725,2.45833 -2.9325,4.88916 l 3.9,1.46417 c 1.46334,5.36 -7.32083,3.89583 -5.60833,9.77583 -2.445,2.93084 -6.58917,0.97 -9.53083,2.93084 -3.41167,0 -6.34,1.465 -9.26834,2.9275 1.7,1.46583 4.145,2.43333 3.4125,5.85666 -2.68083,2.4325 -5.125,4.39334 -8.05333,4.8875 -5.62083,-0.99166 -10.49667,-2.45583 -13.425,3.4 h -1.71167 c -1.7125,3.9225 1.71167,12.7075 -5.125,12.7075 -2.445,-0.49833 -0.24833,2.43084 -1.7125,3.42417 0.98084,2.4325 0.48334,5.85667 0.48334,8.78417 -5.125,2.4325 -8.78417,-2.9275 -13.425,-4.39167 -2.4325,2.43083 -6.83667,1.46417 -9.75167,0.9675 l -0.7325,-1.465 c -0.73167,3.89583 0.47083,8.78333 -1.725,12.21 l -2.43167,6.35333 c 1.69834,2.9275 1.96,6.3275 1.69834,10.24834 -2.19667,2.92833 -5.85584,-0.9925 -7.55584,1.465 0,3.425 -0.4975,6.35333 -3.42583,6.82416 l -0.96667,0.49584 c 4.3925,2.4325 1.465,9.28166 4.62667,12.21083 0,4.88833 -5.36,5.855 -8.28833,8.28667 -7.58084,0.99416 -11.0075,-8.28667 -18.5625,-5.35917 -3.65917,-1.96083 -6.58917,-5.85667 -10.01334,-8.78417 -0.49666,0.96667 -1.7,0.47 -2.43166,0.47 -1.72584,-2.92833 -6.85,-0.47 -7.3225,-4.3925 -3.18834,-0.47083 -1.96,-6.3275 -5.38334,-4.39166 -5.125,3.92 -8.28916,-1.93584 -12.9425,-1.93584 -2.6925,-2.45833 2.45834,-7.34666 -2.6925,-7.34666 -0.73166,-2.92834 2.69167,-5.85584 -0.23666,-7.79167 -3.425,-0.99167 -4.6275,1.93583 -8.0525,1.465 0.4975,4.86333 -4.39167,6.3275 -7.32084,8.28833 l -4.88833,4.88917 c -3.89583,-4.88917 0.4975,-11.2425 -1.69917,-17.1 0.73167,-1.46417 2.66667,0 3.39834,-1.46417 1.72666,-1.465 1.72666,-4.39166 2.19833,-6.82416 -2.19833,0.47083 -2.92917,-3.92084 -5.59583,-1.96 -0.73167,0 -2.92834,0.96666 -2.92834,-0.96834 -1.22916,-3.92166 3.39834,-3.425 1.7,-6.85 -1.7,-4.39166 -8.28916,-0.96666 -7.55666,-7.32 -5.88334,0.96667 -9.77917,-9.7525 -14.90334,-2.4325 -0.96833,0.96667 -2.92833,0.47084 -4.39166,0.47084 -3.9225,-4.39334 -2.45834,-12.18584 -0.99334,-17.07334 0.9925,-3.92166 5.88167,-1.46416 8.54834,-2.9275 2.45833,-1.465 4.1575,-5.85666 7.5825,-5.85666 1.20416,-2.93084 1.95833,-5.38584 4.3925,-7.34667 C 131.35333,409.059 125,400.7465 124.765,390.9915 c -2.19667,-4.39167 -11.00833,-6.84917 -7.34583,-13.67334 -4.39417,-2.68 0,-10.74583 -6.32917,-11.23 -1.22833,-3.17666 -5.385,-1.7125 -7.32,-3.66 -4.88833,-0.7325 -9.045,0 -11.975,4.14417 -3.65917,1.71167 -3.65917,-3.66083 -7.08583,-1.465 -1.20334,0.4975 -2.9275,0 -3.42417,-0.73167 -0.73167,-1.46416 -1.465,-1.9475 -2.92833,-1.46416 0,-1.21584 -0.73167,-1.71084 -1.69917,-2.68 -2.43167,-1.22917 -3.66,-5.125 -5.36,-7.81667 -0.73167,-2.68083 1.20333,-4.64167 2.92833,-6.34167 -2.6925,-0.49666 -4.1575,-2.69166 -4.1575,-5.37166 0,-3.90917 3.425,-3.17667 4.88917,-6.10584 4.3925,1.21667 6.3275,-2.69166 10.25,-1.46416 2.43083,3.17583 4.15583,8.53666 9.28,7.0725 4.13167,-3.41167 10.25,-2.19584 15.13833,-5.60834 1.935,-2.19583 4.8625,-5.85583 9.51667,-4.64083 3.66,3.17667 8.0525,0 11.94833,-1.71167 3.18917,-0.73166 6.11667,-2.68 9.77834,-2.68 3.16333,-5.3725 11.4775,-5.62166 12.20916,-13.19 0,-5.3725 6.825,-6.34 6.35417,-11.71333 0.96667,-0.49583 1.69833,-1.71167 2.66667,-2.69167 -2.66667,-3.89583 0.73166,-8.785 -0.47084,-13.66166 5.36,-3.17667 12.68084,2.68 15.87084,-5.86917 h 3.39833 c -0.47,0.98083 0.49833,1.46417 0.99417,1.7125 3.66,0.48333 4.13083,-6.10583 8.28833,-3.41167 1.22833,-1.465 1.725,-3.17666 4.15667,-2.19666 7.55666,-3.6725 6.82416,-14.65417 14.40583,-17.09834 1.69833,1.96 3.425,1.96 4.88833,2.69334 2.92917,-1.71334 6.0925,-2.19667 9.25584,-1.71334 0.4975,1.71334 2.6925,2.68 4.41916,3.66084 1.46334,-2.19667 3.65917,-4.8775 2.9275,-7.32167 0.73167,-4.39167 4.13084,-7.56917 6.09167,-11.4775 0.96833,-0.98 2.6925,-0.48333 3.89583,-0.48333 1.72667,5.3725 9.295,-0.73167 8.31417,5.85666 2.19583,1.71334 2.92833,5.3725 4.64083,8.05417 0.48334,2.69167 -0.49666,4.88833 -1.22916,7.56833 -2.91584,2.19584 -1.7,6.105 -4.14334,8.3 0.49584,2.19667 1.7125,4.89 0.49584,7.57 4.145,0 6.58916,1.94834 9.51833,4.88834 1.7,0.48333 2.9275,3.16416 3.89583,5.36 -0.96833,4.15833 -0.96833,9.03333 1.96084,11.975 -1.22834,1.94833 1.215,3.66083 1.215,5.85666 0.49666,2.67917 -0.235,4.87584 -1.46417,6.83667 4.89,0.23583 0.73333,8.78417 6.58917,10.4975 3.90916,1.94833 5.3725,-5.3725 8.7975,-4.88917 3.90916,-1.21666 5.85666,1.7125 8.53666,3.17584 0.73334,1.7125 1.7125,3.66083 1.22917,5.85666 1.94833,5.62167 13.425,1.22834 9.26833,10.2625 -1.21666,0 -2.68,-0.49666 -2.92833,0.235 0,3.17667 3.66333,3.66417 4.88833,5.87 3.41167,0.96667 7.56834,-1.22833 10.25,1.7 0.2475,1.46417 0.73084,2.69167 1.96,3.66 2.68,0 4.14334,-1.46416 5.85667,-3.66083 -1.22,-0.73167 -0.24833,-2.68 -0.73333,-3.905 2.92916,0 4.87666,-1.70333 7.57,-2.2 0.73166,-1.46417 1.9475,-2.19583 3.66083,-1.7 2.19583,2.19667 7.56833,0 6.35,5.125 1.7025,1.94833 0.48667,5.3725 3.41583,7.32083 2.9275,5.125 2.9275,11.96084 8.3,15.87 -0.2475,1.7125 1.46417,3.66084 0,5.3725 -3.175,0.485 -1.94666,5.12584 -4.88166,5.12584"
     fill="#d0a650"
     id="path4"
     style="stroke-width:0.833333" />
  <path
     d="m 407.75,416.58316 20.75,-6.75 -20.75,-6.66666 v -21.83334 l -12.83333,17.66667 -20.75,-6.75 12.83333,17.58333 -12.83333,17.66667 20.75,-6.75 12.83333,17.66667 z m -12.08333,68.66667 20.66666,-6.75 -20.66666,-6.66667 v -21.83333 l -12.83334,17.66667 -20.75,-6.75 12.83334,17.58333 -12.83334,17.66667 20.75,-6.75 12.83334,17.66666 z m -23.83334,65.5 20.66667,-6.66667 -20.66667,-6.75 V 515.49983 L 359,533.1665 l -20.75,-6.75 12.83333,17.66666 -12.83333,17.58334 20.75,-6.75 12.83333,17.66666 z M 407.75,346.83316 l 20.75,-6.66666 -20.75,-6.75 v -21.83334 l -12.83333,17.66667 -20.75,-6.75 L 387,340.1665 l -12.83333,17.58333 20.75,-6.75 12.83333,17.66667 z m -12.08333,-68.66666 20.66666,-6.66667 -20.66666,-6.75 V 242.9165 l -12.83334,17.66666 -20.75,-6.75 12.83334,17.66667 -12.83334,17.58333 20.75,-6.75 12.83334,17.66667 z m -23.83334,-65.5 20.66667,-6.75 -20.66667,-6.66667 V 177.4165 L 359,195.08316 l -20.75,-6.75 12.83333,17.58334 -12.83333,17.66666 20.75,-6.75 12.83333,17.66667 z"
     fill="#ffffff"
     id="path6"
     style="stroke-width:0.833333" />
</svg>
