<?xml version="1.0" encoding="UTF-8" standalone="no"?>
<svg
   viewBox="0 0 500 750"
   version="1.1"
   id="svg118"
   sodipodi:docname="MDA_portrait.svg"
   inkscape:version="1.2.2 (b0a8486541, 2022-12-01)"
   width="500"
   height="750"
   xmlns:inkscape="http://www.inkscape.org/namespaces/inkscape"
   xmlns:sodipodi="http://sodipodi.sourceforge.net/DTD/sodipodi-0.dtd"
   xmlns:xlink="http://www.w3.org/1999/xlink"
   xmlns="http://www.w3.org/2000/svg"
   xmlns:svg="http://www.w3.org/2000/svg">
  <defs
     id="defs122" />
  <sodipodi:namedview
     id="namedview120"
     pagecolor="#ffffff"
     bordercolor="#000000"
     borderopacity="0.25"
     inkscape:showpageshadow="2"
     inkscape:pageopacity="0.0"
     inkscape:pagecheckerboard="0"
     inkscape:deskcolor="#d1d1d1"
     showgrid="false"
     inkscape:zoom="0.74167645"
     inkscape:cx="635.72196"
     inkscape:cy="419.32031"
     inkscape:window-width="1340"
     inkscape:window-height="1041"
     inkscape:window-x="576"
     inkscape:window-y="0"
     inkscape:window-maximized="1"
     inkscape:current-layer="svg118" />
  <path
     fill="#c8102e"
     d="M 500,0 V 750.00001 L 0,750 V 0 Z"
     id="path2"
     style="stroke-width:0.481126" />
  <path
     fill="#ffd100"
     d="M 500,0 V 500 H 0 V 0 Z"
     id="path4"
     style="stroke-width:0.481126" />
  <path
     fill="#003da5"
     d="M 500,0 V 250 H 0 V 0 Z"
     id="path6"
     style="stroke-width:0.481126" />
  <path
     d="m 398.2,345.94689 c 0,-1.79056 -0.45667,-3.35445 -1.16665,-4.26668 -0.42221,1.44945 -1.75888,2.50334 -3.38444,2.50334 h -4.12388 v -4.12334 c -1e-5,-1.615 1.03889,-2.95278 2.47444,-3.385 -0.91222,-0.70999 -2.47611,-1.16611 -4.26611,-1.16611 -1.79055,0 -3.355,0.45611 -4.26611,1.16609 1.45,0.42279 2.50333,1.75889 2.50334,3.385 v 4.12335 l -19.82279,-10e-6 c -1.55834,0 -2.8511,-0.97445 -3.32722,-2.33223 -0.26778,1.96723 -2.90778,3.66 -4.35166,4.12389 1.44054,0.46501 4.08388,2.15778 4.35166,4.12446 a 3.4888889,3.4888889 0 0 1 3.32723,-2.36168 l 19.82388,10e-6 v 4.12443 c 0,1.61556 -1.03889,2.95278 -2.47555,3.385 0.91222,0.70945 2.47721,1.16556 4.26667,1.16556 1.79055,1e-5 3.35443,-0.45556 4.2661,-1.16556 -1.44945,-0.42277 -2.50222,-1.75944 -2.50221,-3.385 v -4.12444 l 4.12333,10e-6 c 1.61555,-10e-6 2.95278,1.03832 3.38499,2.47499 0.70889,-0.91111 1.16556,-2.4761 1.16557,-4.26611 z"
     id="path8"
     style="stroke-width:0.555556" />
  <path
     fill="#ffd100"
     d="m 397.34444,345.94689 c 0,-0.93222 -0.17444,-1.75333 -0.39777,-2.44556 -0.80389,0.92445 -1.96889,1.53611 -3.29945,1.53611 h -4.12389 c -0.0589,4e-5 -0.11501,-0.0172 -0.17111,-0.0289 h -0.65389 v -0.65445 c -0.0118,-0.0555 -0.028,-0.1123 -0.0289,-0.17055 v -4.12444 c 0,-1.315 0.60167,-2.46611 1.50723,-3.27001 -0.69944,-0.2311 -1.49834,-0.42667 -2.44611,-0.42667 -0.93223,0 -1.75334,0.17446 -2.44556,0.39779 0.92444,0.80389 1.535,1.96834 1.535,3.29889 l 10e-6,4.97722 c -0.0856,-0.006 -0.16834,-0.0289 -0.25501,-0.0289 h -0.42667 c -0.0554,0.0118 -0.11177,0.0279 -0.17054,0.0289 h -19.82277 c -1.28722,0 -2.29944,-0.66389 -3.1,-1.53611 a 6.6533333,6.6533333 0 0 1 -1.42278,1.62111 c -0.49166,0.40945 -0.97278,0.57223 -1.47833,0.85334 0.50444,0.28166 0.98667,0.44389 1.47833,0.85332 a 6.6866667,6.6866667 0 0 1 1.39389,1.59279 c 0.79833,-0.88 1.83611,-1.53611 3.12833,-1.53611 h 20.64889 v 0.68277 c 0.0108,0.0557 0.0278,0.11165 0.0278,0.17056 v 4.12389 c 0,1.31444 -0.60167,2.46555 -1.50667,3.27 0.69889,0.23055 1.49723,0.42722 2.44556,0.42722 0.93167,0 1.75333,-0.175 2.44556,-0.39833 -0.92444,-0.80389 -1.535,-1.96834 -1.535,-3.29889 v -4.12387 c 2e-5,-0.0583 0.0172,-0.115 0.0289,-0.17057 V 346.913 h 0.65389 c 0.0551,-0.0117 0.11178,-0.0279 0.17112,-0.0289 h 4.12334 c 1.31499,-10e-6 2.46555,0.60222 3.27055,1.50722 0.23,-0.69944 0.42667,-1.49777 0.42667,-2.44555"
     id="path10"
     style="stroke-width:0.555556" />
  <path
     d="m 325.56278,397.56856 c 1.78944,-2.51945 3.81222,-4.58778 6.17222,-6.05778 5.67944,-3.54 12.65167,-5.03389 19.73722,-5.03389 2.995,0 6.36667,3.35555 8.78889,3.35555 3.66111,0 5.85778,-0.34111 5.85778,-0.34111 -0.16222,1.19056 -2.275,3.27056 -2.275,3.27056 0,0 6.07667,-0.0717 7.13833,-1.99169 0,0 0.79888,0.77666 0.88171,3.58387 1.99778,-0.7889 4.43667,-4.69222 4.43667,-4.69222 0.34944,0.195 0.65166,0.55555 0.91,1.02332 0.54222,0.98057 0.9,2.35835 1.10944,3.41223 0.23278,-1.12334 0.58944,-2.41777 1.05278,-3.83888 1.05722,-3.24556 2.60944,-7.06612 4.32222,-10.63667 3.12667,-6.51779 3.32778,-11.48279 3.32778,-14.22001 -5.6e-4,-1.9861 -0.055,-4.9111 -1.19556,-6.6261 -1.04166,-1.56945 -2.39666,-1.44167 -2.87222,-1.99111 -1.12,-1.29445 -1.08056,-3.51167 -1.08056,-4.57945 0,-6.91111 -7.395,-7.16722 -7.395,-7.16722 0,0 2.67389,1.76722 2.67389,4.89167 0,5.195 -2.83,9.12944 -3.89611,9.12944 -0.43166,0 -0.51166,-0.53555 -0.51166,-0.56833 0,-3.39334 1.95333,-8.51445 2.04777,-11.235 h -1.33666 c -2.11278,6.07278 -5.10389,12.22944 -18.28723,12.22944 -8.30166,0 -16.77222,-0.9939 -23.435,-5.14722 -2.35944,-1.47111 -4.37833,-3.56556 -6.17222,-6.08611 l -4.44444,24.65832 z"
     id="path12"
     style="stroke-width:0.555556" />
  <g
     id="a"
     transform="matrix(0,0.55555556,-0.55555556,0,500,-124.992)">
    <path
       d="m 896.222,303.988 -44.383,10 c -2.019,-0.61 -11.513,-3.56 -18.174,-7.269 -11.726,-6.532 -17.806,-13.03 -31.74,-13.669 v -10.598 c 0,-5.662 2.049,-10.763 2.049,-16.177 -5.874,-1.575 -22.178,-21.51 -37.218,-30.358 -22.13,14.334 -39.265,37.865 -39.265,48.686 0,0 0.665,232.51 0,313.51 0,4.668 -2.815,11.263 -2.815,11.263 8.079,-3.418 22.888,-23.68 26.006,-31.382 v 3.687 c 12.201,-5.564 21.135,-20.184 25.136,-27.747 0.071,1.094 0.257,3.839 0.257,3.839 10.9,-9.555 24.776,-66.038 24.776,-66.038 l 23.124,22.725 c 0,0 -8.363,16.976 -11.621,20.015 0,0 2.184,0.277 4.658,0.256 -1.522,2.188 -13.147,18.925 -16.791,25.238 -3.41,5.906 -5.816,3.277 -11.058,3.277 -4.347,0 -14.2,6.925 -15.818,9.727 -1.701,2.945 -2.968,6.523 -2.968,9.471 0,3.24 3.43,7.68 3.43,7.68 0.369,-1.552 1.023,-2.1 1.023,-2.1 0,0 9.013,11.228 10.341,12.695 1.034,1.143 5.645,1.886 7.27,0.411 4.066,-3.697 8.002,-6.282 11.621,-11.62 1.863,-2.752 2.005,-5.905 4.146,-8.859 7.162,-9.88 21.415,-28.799 24.675,-33.12 0.218,1.203 0.405,2.205 0.612,3.43 3.694,-7.458 21.451,-21.707 21.451,-21.707 l 18.578,8.55 c 0,0 -34.687,79.735 -65.476,91.995 0,0 13.395,5.691 29.845,14.232 a 447.91,447.91 0 0 1 7.372,3.943 203.524,203.524 0 0 0 6.399,-8.14 c 9.836,-13.16 19.455,-28.413 19.455,-28.413 0.67,3.961 -4.524,16.194 -13.31,31.281 -1.728,2.964 -3.53,6.064 -5.529,9.213 a 333.743,333.743 0 0 1 6.655,3.892 c 16.295,9.805 31.598,21.077 37.267,31.432 l 4,-10.009 -4,-10.009 V 317.264 l 2,-5 z"
       id="path14" />
    <g
       fill="#ad7c59"
       id="g20">
      <path
         d="m 896.202,667.221 c -5.749,-6.236 -17.769,-13.855 -31.278,-20.886 16.334,-29.316 24.428,-75.655 20.63,-84.88 0,0 -6.705,24.033 -14.898,37.729 -7.586,12.684 -16.925,26.95 -25.954,37.526 -7.428,-3.169 -14.631,-5.828 -20.785,-7.68 27.058,-20.843 54.726,-89.742 54.726,-89.742 l -28.612,-13.26 c 0,0 -10.704,12.479 -14.18,14.796 0,0 -1.485,-6.206 -2.355,-8.396 0,0 -4.101,3.102 -6.346,3.176 0,0 -0.671,-4.212 -1.178,-6.964 -2.825,1.883 -7.525,1.485 -7.525,1.485 4.127,-1.954 9.01,-13.925 9.01,-13.925 l -27.322,-36.343 c 0,0 -9.597,46.116 -20.528,55.596 v -198.58 l 8.652,8.036 13.105,-12.235 v -9.317 l -11.621,10.852 v -28.105 a 94.373,94.373 0 0 0 3.788,-6.194 c 1.881,3.279 7.96,13.329 15.101,19.505 1.175,-4.778 8.908,-9.318 8.908,-9.318 0,0 2.771,7.508 7.012,9.368 1.492,-2.628 10.394,-8.446 10.394,-8.446 0,0 -7.616,1.157 -10.7,4.045 -2.649,-0.593 -3.328,-11.058 -3.328,-11.058 0,0 -11.207,5.459 -13.156,9.368 -2.137,-0.578 -5.464,-8.988 -6.759,-12.44 a 74.752,74.752 0 0 1 8.345,-0.46 c 3.196,0 7.285,1.514 11.569,3.532 4.707,2.216 9.631,5.022 14.028,7.014 5.632,2.55 14.153,3.068 16.637,3.174 -2.845,2 -5.973,3.826 -9.367,5.529 0,0 13.411,-0.124 22.832,-4.813 3.361,-2.162 6.849,-4.316 9.829,-6.86 -1.293,3.593 -3.306,7.839 -6.452,11.467 13.836,-1.171 20.726,-9.072 22.679,-11.723 0.918,2.375 2.553,6.187 5.119,9.47 h 5 v 340 z m -101.955,-399.923 0.255,6.348 v 18.687 c -5.019,-1.727 -11.326,-9.973 -14.384,-14.334 v -2.56 c 0,-2.408 1.417,-4.167 2.457,-5.119 l -3.02,-1.074 c -1.152,1.313 -2.406,3.263 -2.406,5.784 v 1.485 l -9.009,9.676 -8.856,-13.413 v -3.276 c 0,-2.208 1.698,-4.67 3.123,-6.348 l -2.97,-1.075 c -1.499,1.942 -3.072,4.559 -3.072,7.013 v 2.661 a 10183.97,10183.97 0 0 1 -10.187,10.496 l -5.17,-11.109 c 6.205,-8.595 16.266,-18.219 25.749,-25.125 0,0 20.564,18.881 27.49,21.283 z m -52.12,18.123 v 15.411 l -7.167,6.654 v -22.883 c 0,-2.191 0.918,-4.831 2.456,-7.731 z"
         id="path16" />
      <path
         d="m 764.447,291.359 v 9.522 l -8.241,7.731 v -29.794 z m -11.161,17.202 -8.243,-7.679 v -11.159 l 8.243,-8.652 z m 37.627,-11.57 c -1.914,2.705 -6.927,9.321 -12.337,12.236 v -26.16 c 1.241,2.064 6.934,11.274 12.337,13.924 z m -15.257,-12.594 v 24.163 l -8.243,-7.679 v -8.549 z m -33.53,25.75 v 24.113 l -7.167,-6.707 v -10.7 z m 11.154,7.731 v 8.651 l -8.244,7.678 v -24.009 z m 11.158,-7.678 v 24.01 l -8.241,-7.731 v -8.549 z m 11.213,7.73 v 8.549 l -8.243,7.73 v -24.01 z m 11.159,16.33 -8.244,-7.731 v -8.036 c 2.843,-1.735 5.702,-4.924 8.243,-8.293 z m -20.885,10.648 8.703,-8.089 v 198.63 c 0,0 0.607,9.856 1.024,16.279 l -18.429,18.634 V 336.766 Z M 752.253,562.94 c 0,6.385 -11.659,21.273 -17.303,24.675 v -250.74 l 8.6,8.036 8.703,-8.09 z"
         id="path18" />
    </g>
    <g
       fill="#c8102e"
       id="g26">
      <path
         d="m 824.535,541.388 6.348,-4.352 c 0,0 0.423,2.1 0.972,4.967 -2.718,3.716 -18.331,25.024 -26.057,35.425 -1.921,2.584 -3.534,9.163 -3.534,9.163 0,0 -2.814,-1.331 -2.814,-3.736 0,-2.362 0.308,-5.171 0.308,-5.171 0,0 -2.101,2.406 -5.735,2.406 0,-2.903 5.614,-6.052 5.836,-10.186 -4.281,3.174 -7.999,1.545 -12.951,3.072 -5.393,1.661 -6.895,3.927 -8.549,3.84 -0.974,-0.053 -1.856,-1.733 -1.484,-2.765 0.644,-1.787 7.314,-6.733 11.977,-7.627 1.117,-0.214 9.903,1.912 11.673,-0.819 7.292,-11.252 19.13,-29.518 20.272,-31.278 0.752,-0.18 1.444,-0.371 1.995,-0.719 0,0 -0.067,5.751 1.743,7.78 z"
         id="path22" />
      <path
         d="m 783.72,576.452 c 0.353,0.408 0.322,1.006 -0.053,1.33 l -2.866,2.508 c -0.375,0.324 -0.977,0.255 -1.33,-0.154 -0.354,-0.408 -0.324,-1.006 0.052,-1.331 l 2.866,-2.508 a 0.851,0.851 0 0 1 0.665,-0.204 c 0.238,0.027 0.488,0.154 0.666,0.359 z m 4.351,3.02 c 0.857,0.988 0.802,2.388 -0.103,3.175 l -6.962,6.091 c -0.906,0.788 -2.367,0.63 -3.226,-0.357 -0.857,-0.988 -0.803,-2.439 0.103,-3.225 l 6.962,-6.041 a 2.206,2.206 0 0 1 1.229,-0.513 c 0.712,-0.058 1.46,0.254 1.997,0.87 z m 3.99,4.71 c 0.857,0.988 0.803,2.387 -0.103,3.174 l -7.012,6.092 c -0.906,0.787 -2.316,0.63 -3.175,-0.358 -0.858,-0.987 -0.803,-2.438 0.104,-3.224 l 6.961,-6.041 a 2.07,2.07 0 0 1 1.178,-0.513 c 0.711,-0.058 1.51,0.252 2.047,0.87 z m 2.403,3.737 a 2.37,2.37 0 0 1 1.997,0.819 c 0.858,0.988 0.803,2.439 -0.102,3.225 l -6.963,6.042 c -0.906,0.787 -2.316,0.629 -3.174,-0.359 -0.858,-0.988 -0.854,-2.388 0.051,-3.175 l 7.014,-6.091 c 0.338,-0.296 0.749,-0.427 1.177,-0.461 z"
         id="path24" />
    </g>
  </g>
  <use
     xlink:href="#a"
     transform="matrix(1,0,0,-1,0,745.79378)"
     id="use29" />
  <path
     fill="#ad7c59"
     d="m 385.20167,367.19357 c -10e-6,6.36554 -2.90223,10.84276 -5.57388,16.8661 -0.70001,1.57833 -1.26723,3.02777 -1.70612,4.32166 -0.71834,-0.81054 -1.44,-1.44111 -2.04834,-1.6211 0,0 -0.5,2.69944 -2.75944,3.92444 0,0 -0.29111,-2.56667 -1.79111,-2.98611 -0.10834,1.43777 -1.92056,2.86612 -3.66945,2.87277 l 1.13834,-3.64055 c 0,0 -4.08778,0.88166 -8.53223,0.88166 -2.27,0 -4.94111,-3.27 -8.78833,-3.26999 -12.07444,-10e-6 -16.71555,3.04166 -20.44833,5.20499 -1.46056,0.84612 -3.14111,1.53389 -4.40834,2.95778 3.31834,-6.23222 7.46612,-10.86444 11.31889,-10.86444 h 14.59 v -1.62111 h -14.59001 c -2.79388,0 -4.09554,0.68222 -4.09554,0.68222 -3.09111,0.97833 -7.86222,2.95611 -9.78334,4.18111 3.09889,-5.73389 6.97945,-8.64667 8.41834,-8.64667 h 20.05111 v -1.62111 h -20.335 l -1.39333,0.31278 c -1.04445,-0.695 -2.28113,-1.59833 -2.70167,-2.21833 0.42,-0.61834 1.65889,-1.49445 2.70167,-2.19056 l 1.39333,0.31333 h 20.335 v -1.62111 l -20.05111,10e-6 c -1.43834,0 -5.31945,-2.91278 -8.41834,-8.64612 1.92167,1.225 6.69223,3.20222 9.78334,4.18 0,0 1.30111,0.68278 4.09555,0.68278 h 14.58999 l 10e-6,-1.62111 h -14.59 c -3.84833,0 -8.00277,-4.615 -11.31889,-10.83611 1.26834,1.40944 2.95612,2.08722 4.40834,2.92889 4.08222,2.36555 9.26833,5.29 24.03222,5.29 5.54111,0 9.30833,-0.81945 11.945,-2.24667 0.87,-0.43389 3.18556,-1.01833 3.18556,2.30333 0,1.72056 -3.04334,5.66 -3.04334,5.66 0,0 2.42834,-0.16222 3.81111,-2.16166 0.22945,-0.33167 0.95111,-0.88111 1.62167,-0.88111 0.50222,0 1.74167,0.86166 2.04778,1.53501 0.21003,0.46275 1.47,-6.76835 4.74945,-6.76835 0.68277,0 1.13777,0.42945 1.13777,1.93278 0,1.96944 -2.36056,5.17333 -2.36056,8.02111 0,2.105 0.51223,2.935 0.51223,5.09056 0,2.63444 -4.98834,8.13055 -4.80611,10.01055 1.31944,-2.10166 6.31388,-5.49666 6.31388,-10.63611 0,-1.78389 -0.39833,-3.39833 -0.39833,-5.06333 0,-2.13389 1.96278,-4.235 1.96278,-6.54111 0,-1.54555 -0.0861,-3.27167 0.31333,-3.52723 0.69722,-0.44722 1.10167,-0.0444 1.67778,0.37 1.08722,0.78278 1.40278,2.98112 1.47836,5.14833 a 43.307222,43.307222 0 0 1 0.0278,1.90722 c -0.006,0.60555 -0.0294,1.16611 -0.0294,1.65056 z"
     id="path31"
     style="stroke-width:0.555556" />
  <path
     fill="#c8102e"
     d="m 377.39444,346.52467 c 0,0 2.545,1.34389 2.545,4.74111 0,1.42 0.0983,6.10666 0.0983,6.10666 -1.62278,0.62444 -4.33445,3.47167 -7.15445,3.47167 0,0 5.20945,-2.89 5.20945,-10.95722 0,-2.02722 -0.69778,-3.36333 -0.69778,-3.36333 z m -5.50555,13.11666 c 0,0 -1.81,-1.71833 -2.77611,-2.09166 0.64444,-1.70056 3.70055,-4.66611 3.70055,-4.66611 0,0 -1.46777,2.51388 -0.92444,6.75722 z"
     id="path33"
     style="stroke-width:0.555556" />
  <path
     d="m 376.68333,356.91911 c 0,0 0.63556,-1.98222 1.30111,-1.98222 0.84778,0 0.84778,0.96278 0.18723,1.53833 -0.45499,0.39611 -1.48888,0.44336 -1.48888,0.44336 z"
     id="path35"
     style="stroke-width:0.555556" />
  <ellipse
     cx="366.16409"
     cy="-375.59613"
     rx="4.0961113"
     ry="3.1088891"
     id="ellipse37"
     style="stroke-width:0.555556"
     transform="rotate(90)" />
  <circle
     fill="#ffd100"
     cx="366.15967"
     cy="-375.59613"
     r="2.8449998"
     id="circle39"
     style="stroke-width:0.555556"
     transform="rotate(90)" />
  <circle
     cx="366.16077"
     cy="-375.59558"
     r="1.3033333"
     id="circle41"
     style="stroke-width:0.555556"
     transform="rotate(90)" />
  <path
     d="m 171.13778,320.21633 -4.91,9.00056 -10.01611,-2.18333 4.91111,-9.00056 z"
     id="path43"
     style="stroke-width:0.555556" />
  <path
     d="m 267.37222,278.28578 -1.47944,-3.24222 -80.23334,36.63111 v 3.89666 z m -94.62222,43.20111 -2.73056,-2.64445 -3.64055,1.64945 1.47889,3.21333 z"
     id="path45"
     style="stroke-width:0.555556" />
  <path
     d="m 204.11111,289.66911 c 0,0 -6.37333,3.08556 -7.24722,5.43056 0.33055,-1.21278 -1.11445,-5.15056 -1.11445,-5.15056 0,0 -6.20277,6.94389 -6.61,12.83333 -0.34388,4.99445 2.14889,7.41945 2.14889,7.41945 l 5.29111,-1.00056 c 0,0 3.69,-3.05555 5.39278,-7.94555 1.72111,-4.94111 2.13778,-11.58722 2.13778,-11.58722 z m 11.41667,23.26111 c 0,0 -3.64722,-4.26055 -7.87167,-5.42666 -4.225,-1.16667 -9.02611,0.76 -9.02611,0.76 l -6.67833,3.58 c 0,0 2.64055,4.96166 6.58889,7.07222 3.94888,2.11055 9.27666,1.33666 9.27666,1.33666 0,0 -1.46333,-3.93055 -2.11111,-4.43055 4.38,0.82944 9.82167,-2.89222 9.82167,-2.89222 z m 1.70555,-13.69444 c 0,0 -1.63777,-4.84556 -1.35444,-9.55111 0.27055,-4.48223 4.03444,-8.20945 4.03444,-8.20945 0,0 2.51445,3.71556 2.17945,5.54945 0.73722,-2.01723 5.79055,-4.94223 5.79055,-4.94223 0,0 1.25611,4.15667 -0.13333,7.84223 -1.39056,3.68555 -5.42778,6.89944 -5.42778,6.89944 l -5.08889,2.41222 z M 240.9,300.90244 c 0,0 -5.01778,2.42334 -6.76168,1.84885 1.16111,0.75168 2.96945,3.59667 2.96945,3.59667 0,0 -8.12445,1.72 -13.14222,0.075 -5.01723,-1.64444 -6.92778,-6.65222 -6.92778,-6.65222 l 10.74278,-5.52389 c 0,0 3.98,-0.82222 7.13166,0.9 3.15167,1.72278 5.98834,5.75555 5.98834,5.75555 z m 13.28333,-31.52777 c 0,0 0.55,5.23722 -1.435,10.02833 -1.66277,4.00556 -4.685,5.23333 -4.685,5.23333 l -5.28889,1.97278 c 0,0 -2.13777,-5.70055 -0.50333,-10.20444 1.63611,-4.50445 7.04445,-7.81389 7.04445,-7.81389 0,0 1.19388,3.14778 0.74612,4.34611 0.77221,-1.74556 4.12165,-3.56111 4.12165,-3.56111 h -5.6e-4 z M 264,285.8469 c 0,0 -2.95167,2.29832 -6.34667,2.36722 1.805,0.61277 3.8,3.48221 3.8,3.48221 0,0 -7.14166,2.95111 -12.21222,2.30334 -5.07111,-0.64778 -8.07055,-4.89389 -8.07055,-4.89389 l 10.05111,-5.295 c 0,0 4.11944,-1.72556 7.315,-1.21722 3.19444,0.50888 5.46444,3.25333 5.46444,3.25333 z m 19.22222,-18.1389 c 0,0 -5.47444,-0.94944 -8.62778,0.66611 -2.81388,1.44333 -3.43111,2.36222 -3.43111,2.36222 1.81611,-2.75223 1.97278,-6.91333 1.97278,-6.91333 0,0 -5.95611,1.48111 -8.67333,5.02056 -2.71722,3.53944 -2.08222,8.99722 -2.08222,8.99722 0,0 4.77777,3.58889 9.92499,3.33889 5.14723,-0.24945 10.66501,-4.33777 10.66501,-4.33777 0,0 -3.34445,-1.61223 -5.84112,-1.75446 2.57389,-1.04333 6.09223,-7.38055 6.09223,-7.38055 z m -91.70555,42.77778 -1.965,0.14722 c -0.0306,3.26389 0.29444,3.75 -0.73445,4.58667 -0.68555,0.55722 -1.28389,1.88277 -0.675,3.215 0.60834,1.33333 2.20945,1.93055 3.54222,1.32223 1.33278,-0.60834 1.62223,-1.84779 1.38667,-3.04169 -0.14447,-0.73276 -0.72944,-1.21499 -1.05054,-1.83665 -0.61224,-1.18223 -0.50446,-4.39389 -0.50446,-4.39389 z"
     id="path47"
     style="stroke-width:0.555556" />
  <path
     d="m 193.01667,310.20244 -1.16389,1.58834 c -2.78556,-1.70389 -3.02556,-2.23556 -4.28056,-1.8061 -0.83555,0.2861 -2.27611,0.0922 -3.085,-1.13057 -0.80833,-1.22222 -0.46722,-2.89667 0.75445,-3.705 1.22222,-0.80778 2.42555,-0.39722 3.31389,0.435 0.54555,0.51111 0.64444,1.26111 1.00166,1.86278 0.67945,1.14555 3.46,2.755 3.46,2.755 z m 23.33333,-11.05555 -1.965,0.14667 c -0.03,3.26444 0.29444,3.75 -0.73389,4.58666 -0.685,0.55667 -1.28389,1.88278 -0.675,3.215 0.60833,1.33389 2.20888,1.93111 3.54167,1.32167 1.33333,-0.60833 1.62222,-1.84722 1.38666,-3.0411 -0.14505,-0.73334 -0.72944,-1.21501 -1.05055,-1.83612 -0.61167,-1.18278 -0.50445,-4.39389 -0.50445,-4.39389 z"
     id="path49"
     style="stroke-width:0.555556" />
  <path
     d="m 215.65556,299.808 -1.39834,1.38889 c -2.48555,-2.11611 -2.64055,-2.68 -3.94666,-2.45056 -0.87056,0.15335 -2.26389,-0.26277 -2.87223,-1.59666 -0.60833,-1.33278 -0.0117,-2.93278 1.32167,-3.54223 1.33278,-0.60833 2.45833,-0.0156 3.20611,0.945 0.45833,0.58945 0.4406,1.34722 0.69889,1.99612 0.49278,1.23722 2.99,3.25944 2.99,3.25944 z m 23.94443,-11.65 -1.96499,0.14722 c -0.03,3.26445 0.29444,3.75 -0.735,4.58722 -0.68389,0.55723 -1.28279,1.88223 -0.67389,3.21555 0.60833,1.33223 2.20833,1.93001 3.54278,1.32168 1.33278,-0.60945 1.62167,-1.84778 1.38611,-3.04223 -0.14504,-0.73332 -0.72944,-1.215 -1.05056,-1.83666 -0.61222,-1.18222 -0.50388,-4.39334 -0.50388,-4.39334 z"
     id="path51"
     style="stroke-width:0.555556" />
  <path
     d="m 240.01111,289.06356 -1.39778,1.38833 c -2.48611,-2.11611 -2.64111,-2.67889 -3.94722,-2.45055 -0.87001,0.15329 -2.26333,-0.26277 -2.87167,-1.59612 -0.60777,-1.33278 -0.0111,-2.93333 1.32167,-3.54222 1.33333,-0.60778 2.45889,-0.015 3.20611,0.945 0.45945,0.58944 0.44056,1.34667 0.7,1.99667 0.49278,1.23722 2.98889,3.25889 2.98889,3.25889 z m 24.13334,-12.61112 -1.96445,0.14667 c -0.0306,3.26445 0.29444,3.75056 -0.73389,4.58667 -0.68555,0.55778 -1.28388,1.88333 -0.67611,3.21555 0.60944,1.33334 2.20944,1.93056 3.54278,1.32223 1.33333,-0.60834 1.62278,-1.84778 1.38666,-3.04223 -0.14496,-0.73223 -0.73,-1.21444 -1.05055,-1.83611 -0.61167,-1.18222 -0.50445,-4.39389 -0.50445,-4.39389 z"
     id="path53"
     style="stroke-width:0.555556" />
  <path
     d="m 264.55556,277.358 -1.39834,1.38778 c -2.48611,-2.11555 -2.64055,-2.67945 -3.94722,-2.45 -0.87001,0.1533 -2.26333,-0.26334 -2.87167,-1.59611 -0.60833,-1.33334 -0.0117,-2.93335 1.32167,-3.54167 1.33278,-0.60889 2.45944,-0.0156 3.20611,0.94389 0.45833,0.59 0.4406,1.34721 0.7,1.99667 0.49222,1.23666 2.98889,3.25888 2.98889,3.25888 z"
     id="path55"
     style="stroke-width:0.555556" />
  <g
     fill="#ffd100"
     id="g75"
     transform="matrix(0,0.55555556,-0.55555556,0,500,-124.992)">
    <path
       d="m 803.71,597.062 10.048,5.482 -2.438,11.183 -10.049,-5.482 z M 759.72,500.09 c -2.106,0.874 -5.23,-8.295 -7.524,-13.318 -2.353,-5.155 -7.131,-13.1 -5.774,-13.72 1.489,-0.68 3.451,3.492 5.859,8.767 2.408,5.273 9.412,17.449 7.439,18.269 z M 738.09,451.8 c -2.105,0.877 -4.41,-5.127 -6.703,-10.151 -2.353,-5.154 -4.645,-8.795 -3.288,-9.415 1.49,-0.68 3.69,3.837 5.616,8.055 1.866,4.088 6.348,10.69 4.374,11.512 z m 50.04,109.49 c -1.653,0.442 -8.869,-14.662 -14.703,-27.442 -5.833,-12.779 -10.177,-23.119 -8.82,-23.736 1.49,-0.681 6.213,11.391 12.049,24.172 5.835,12.781 12.713,26.673 11.475,27.006 z"
       id="path57" />
    <circle
       cx="796.19501"
       cy="556.98401"
       r="2.6059999"
       id="circle59" />
    <circle
       cx="778.27002"
       cy="563.93298"
       r="2.6059999"
       id="circle61" />
    <circle
       cx="775.77698"
       cy="512.25"
       r="2.6059999"
       id="circle63" />
    <circle
       cx="757.84399"
       cy="522.23999"
       r="2.6059999"
       id="circle65" />
    <circle
       cx="756.00098"
       cy="470.414"
       r="2.6059999"
       id="circle67" />
    <circle
       cx="738.50201"
       cy="478.40201"
       r="2.6059999"
       id="circle69" />
    <circle
       cx="734.93103"
       cy="426.23901"
       r="2.6059999"
       id="circle71" />
    <circle
       cx="717.435"
       cy="434.22299"
       r="2.6059999"
       id="circle73" />
  </g>
  <path
     d="m 279.89444,269.31911 c 0,0 -4.00055,-0.14167 -6.26944,1.18166 -2.27,1.32389 -3.175,4.28001 -3.175,4.28001 0,0 3.99944,0.14111 6.26833,-1.18222 2.27,-1.32389 3.17611,-4.27945 3.17611,-4.27945 z m -9.05,-2.76667 c 0,0 -0.20444,3.475 -1.74222,5.48223 -1.53778,2.00555 -4.74166,2.78277 -4.74166,2.78277 0,0 -0.23389,-2.30333 1.30388,-4.30888 1.53834,-2.00612 5.18,-3.95612 5.18,-3.95612 z m 8.07778,10.90556 c 0,0 -2.65,-1.15556 -5.50666,-1.02222 -2.85723,0.13278 -6.07612,1.8 -6.07612,1.8 0,0 3.43,1.50722 6.28778,1.37444 2.85722,-0.13222 4.48611,-1.74832 5.295,-2.15222 z m -25.75555,-5.85 c 0,0 -2.38223,1.70611 -3.68111,4.33278 -1.29834,2.62666 -1.34667,6.54055 -1.34667,6.54055 0,0 2.53444,-1.95333 3.83333,-4.58055 1.29834,-2.62667 1.19556,-6.29278 1.19556,-6.29278 z m -5.53334,0.84444 c 0,0 -2.45611,1.25389 -3.50889,3.54667 -1.05333,2.29389 -0.96666,6.98556 -0.96666,6.98556 0,0 2.295,-1.8 3.34833,-4.09334 1.05389,-2.29333 1.12722,-6.43944 1.12722,-6.43944 z m 13.1,13.20557 c 0,0 -2.29055,-1.38612 -4.81444,-1.25057 -2.525,0.13612 -5.28389,1.79278 -5.28389,1.79278 0,0 3.16278,1.165 5.68722,1.02889 2.525,-0.13555 4.41111,-1.57167 4.41111,-1.57167 z m -3.23889,5.10555 c 0,0 -3.18333,-2.37167 -6.45611,-2.71223 -3.27222,-0.34055 -6.63444,1.34889 -6.63444,1.34889 0,0 2.87667,2.865 6.14889,3.20555 3.27333,0.34056 6.94055,-1.84221 6.94055,-1.84221 z m -30.22222,-6.53889 c 0,0 -1.17668,0.28495 -2.42611,1.27611 -1.25055,0.99055 -2.57333,2.68666 -2.57333,2.68666 0,0 0.52668,1.63834 0.0861,3.67501 -0.44167,2.03611 -2.25556,4.74444 -2.25556,4.74444 0,0 4.35056,-2.915 6.04223,-5.94167 1.69055,-3.02666 1.12722,-6.43944 1.12722,-6.43944 z m -7.47778,-0.3 c 0,0 1.61223,3.77389 1.19612,6.88166 -0.41612,3.10834 -2.87278,5.91056 -2.87278,5.91056 0,0 -1.45334,-4.20056 -1.03778,-7.30834 0.41611,-3.10888 2.71444,-5.48444 2.71444,-5.48444 z m 17.54445,15.95 c 0,0 -3.53556,-3.33723 -6.60389,-3.61723 -3.06778,-0.27944 -5.92722,2.70612 -5.92722,2.70612 0,0 1.96778,-0.14667 3.26333,0.36722 1.29556,0.51444 2.67888,1.60722 2.67888,1.60722 0,0 1.57945,0.46556 2.84612,0.28556 1.77,-0.25167 3.74278,-1.34889 3.74278,-1.34889 z m -4.09445,4.78889 c 0,0 -3.18277,-3.14556 -6.59111,-3.97668 -3.40834,-0.83166 -7.04222,0.65001 -7.04222,0.65001 0,0 2.25667,2.86055 5.66445,3.69222 3.40834,0.83167 7.96888,-0.36611 7.96888,-0.36611 z M 212.7,312.54133 c 0,0 -2.975,1.425 -5.46278,1.78611 -2.48722,0.36223 -3.34833,0.0267 -3.34833,0.0267 0,0 -1.44833,-1.47333 -2.3,-2.13389 -1.09446,-0.84889 -3.09778,-0.97333 -3.09778,-0.97333 0,0 4.39778,-2.95833 7.61278,-2.50222 3.21444,0.45555 6.59667,3.79666 6.59667,3.79666 z m -6.88333,6.23334 c 0,0 -2.50167,-3.78778 -5.06834,-5.29056 -2.565,-1.50444 -5.19389,-0.72444 -5.19389,-0.72444 0,0 0.23778,2.69889 2.80334,4.20333 2.56555,1.50333 7.45944,1.81112 7.45944,1.81112 z M 195.25,293.88578 c 0,0 0.14889,5.45889 -0.67167,8.79555 -0.81945,3.33667 -2.60833,4.55111 -2.60833,4.55111 0,0 -1.75667,-3.75166 -0.93667,-7.08833 0.81945,-3.33667 4.21723,-6.25889 4.21723,-6.25889 z m 6.47778,-0.92222 c 0,0 -3.81834,2.46277 -5.20389,5.64666 -1.90833,4.38778 -0.98333,9.46834 -0.98333,9.46834 0,0 3.38277,-2.76 4.87611,-6.55778 1.49277,-3.79889 1.31055,-8.55722 1.31055,-8.55722 z"
     fill="#007749"
     id="path77"
     style="stroke-width:0.555556" />
  <path
     d="m 276.69778,479.86356 -1.50667,0.71166 c 0,0 -0.39669,-1.15554 -1.42167,-1.67889 -1.02611,-0.52222 -2.475,0.34167 -2.475,0.34167 0,0 0.52389,-6.00222 -0.0856,-6.93944 -0.55,-0.84889 -4.70778,0.35944 -8.21945,-0.19945 -4.89444,-0.77888 -4.48333,-2.70833 -5.43166,-2.78722 -0.92167,-0.0767 -2.36056,0.73944 -2.36056,0.73944 0,0 -0.35448,-1.12554 -0.825,-1.36555 -0.75666,-0.38611 -2.15278,0.26889 -3.07111,-0.19889 -5.12389,-2.61111 -12.68666,-6.46667 -17.69055,-9.01556 -0.69834,-0.35611 -0.965,-1.31277 -1.90556,-1.79222 -0.86778,-0.44222 -2.13278,-0.085 -2.13278,-0.085 0,0 -0.10111,-1.68944 -1.25166,-2.27555 -1.22223,-0.62278 -2.87222,-0.25612 -2.87222,-0.25612 0,0 -0.13667,-1.06833 -1.16612,-1.59332 -1.10055,-0.56056 -1.67778,0.38889 -2.16166,0.14388 -6.72334,-3.42721 -14.64889,-7.46333 -19.48223,-9.92611 -1.77722,-0.90611 -2.13333,-4.07667 -5.745,-5.91667 -3.50333,-1.78555 -6.08611,0.76778 -6.08611,0.76778 0,0 -0.24,-2.65111 -1.62166,-3.35556 -1.40834,-0.71777 -3.54667,-0.15 -4.52167,1.76334 -0.97445,1.91332 -0.18556,4.00389 1.22277,4.72222 1.38166,0.70389 3.66889,-0.71166 3.66889,-0.71166 0,0 -0.51723,3.59055 2.98666,5.37499 3.61167,1.84057 6.35611,0.28889 8.13389,1.19445 4.83333,2.46333 12.75834,6.50001 19.48222,9.92611 0.48389,0.24722 0.065,1.25944 1.16556,1.82 1.02944,0.52445 1.96223,0 1.96223,0 0,0 0.68332,1.56779 1.9061,2.19055 1.15056,0.58667 2.58778,-0.31277 2.58778,-0.31277 0,0 0.44,1.23501 1.30778,1.67778 0.94055,0.47888 1.86111,0.12666 2.56055,0.48278 5.00334,2.54999 12.56667,6.4061 17.68945,9.0161 0.91944,0.46835 1.23389,1.97501 1.99166,2.36056 0.47001,0.24 1.59223,-0.14167 1.59223,-0.14167 0,0 0.16444,1.66001 0.76833,2.36 0.62112,0.72111 1.95333,-0.74278 5.46056,2.75945 2.51555,2.51222 3.99555,6.565 5.00555,6.51222 1.11667,-0.0583 5.65945,-4.01 5.65945,-4.01 0,0 0.14055,1.66723 1.16555,2.19 1.02561,0.52279 2.21894,0.17112 2.21894,0.17112 l 0.28444,1.64888 h 7.82112 z m -108.93,-54.52 a 1.9433333,1.9433333 0 0 0 -1.73389,0 c 0,0 0.62222,-1.99056 0.28444,-2.67334 -0.31833,-0.64333 -9.69889,0 -9.69889,0 0,0 5.01,7.94167 5.71667,7.82056 0.75111,-0.12776 2.01945,-1.79166 2.01945,-1.79166 0.10333,0.64332 0.50666,1.14499 0.995,1.39388 0.51388,0.26111 1.98222,0.29611 2.90166,-1.50777 0.34445,-0.67556 0.44667,-1.27723 0.39778,-1.7639 -0.0817,-0.80833 -0.5611,-1.31389 -0.88222,-1.47777 z"
     id="path79"
     style="stroke-width:0.555556" />
  <g
     fill="#ffd100"
     id="g87"
     transform="matrix(0,0.55555556,-0.55555556,0,500,-124.992)">
    <path
       d="m 1091.34,402.51 6.757,3.431 -0.101,-8.14 z m -2.61,4.915 c -0.868,1.704 -0.025,3.886 1.894,4.863 1.92,0.977 4.148,0.373 5.018,-1.33 0.868,-1.704 0.023,-3.885 -1.895,-4.863 a 4.2,4.2 0 0 0 -2.201,-0.462 c -1.208,0.083 -2.273,0.727 -2.816,1.792 z m -11.62,6.195 c -0.711,0.46 0.256,6.545 0.051,11.722 -0.194,4.882 -1.756,6.257 -2.611,7.935 -0.789,1.549 -3.634,3.379 -3.634,3.379 l 2.354,2.355 c 0,0 1.532,-2.386 3.942,-7.118 2.843,-5.579 2.751,-15.688 3.585,-16.227 0.725,-0.469 6.655,-1.946 6.655,-1.946 -10e-4,0 -5.442,-0.294 -8.447,-0.255 -1.003,0.013 -1.73,0.048 -1.895,0.155 z"
       id="path81" />
    <path
       d="m 1077.73,441.725 c 0,0 0.787,-2.188 3.533,-7.577 3.311,-6.499 10.379,-11.213 10.544,-12.389 0.172,-1.212 -2.457,-6.91 -2.457,-6.91 0,0 -6.235,1.195 -7.117,2.048 -0.852,0.823 -0.476,9.267 -3.788,15.767 -2.744,5.388 -4.094,7.372 -4.094,7.372 z"
       id="path83" />
    <path
       d="m 1093.65,422.22 c 0.052,0.989 -8.163,6.861 -11.007,12.439 -2.41,4.731 -3.43,7.373 -3.43,7.373 l 3.277,0.512 c 0,0 -0.226,-3.367 0.563,-4.915 0.854,-1.677 1.079,-3.731 4.915,-6.757 4.068,-3.209 9.567,-6.014 9.522,-6.861 -0.041,-0.782 -6.144,-8.344 -6.144,-8.344 0,0 2.257,5.692 2.304,6.553 z m -24.06,36.5 c 4.936,-9.688 6.444,-10.348 7.065,-11.569 0.669,-1.312 0.509,-3.078 -1.689,-4.199 -0.824,-0.419 -1.531,-0.526 -2.15,-0.459 -1.033,0.111 -1.784,0.767 -2.201,1.586 -0.622,1.222 -0.285,2.855 -5.223,12.544 l -11.212,21.961 c 0,0 -1.175,2.156 1.024,3.276 2.199,1.119 3.174,-1.127 3.174,-1.127 z m -19.81,25.188 c -0.611,1.201 0.436,2.964 2.355,3.943 1.919,0.976 3.996,0.791 4.607,-0.41 0.611,-1.2 -0.486,-2.964 -2.406,-3.943 -0.959,-0.489 -1.935,-0.687 -2.764,-0.613 -0.83,0.072 -1.486,0.424 -1.792,1.023 z m -4.15,6.245 c -0.792,1.553 0.443,3.783 2.765,4.968 2.322,1.183 4.84,0.886 5.631,-0.667 0.792,-1.554 -0.444,-3.782 -2.765,-4.967 -0.871,-0.442 -1.733,-0.677 -2.56,-0.716 -1.374,-0.065 -2.576,0.411 -3.071,1.382 z m -2.61,6.964 c -0.611,1.199 0.437,2.963 2.355,3.941 1.919,0.978 3.995,0.791 4.608,-0.409 0.611,-1.2 -0.437,-2.964 -2.355,-3.942 -0.96,-0.49 -1.986,-0.688 -2.816,-0.615 -0.828,0.073 -1.485,0.424 -1.792,1.025 z m -1.69,6.655 c 0,0 -12.448,24.5 -16.84,33.121 -1.404,2.754 -7.312,4.47 -9.625,9.011 -2.33,4.568 -0.686,8.844 2.354,10.392 3.039,1.549 7.502,0.423 9.83,-4.146 2.313,-4.54 0.235,-10.353 1.637,-13.106 4.393,-8.624 16.843,-33.122 16.843,-33.122 0,0 1.226,-2.156 -0.973,-3.276 a 2.372,2.372 0 0 0 -1.433,-0.255 c -1.212,0.155 -1.793,1.381 -1.793,1.381 z m -31.49,56.874 c -0.933,1.83 0.134,4.269 2.405,5.426 2.272,1.158 4.904,0.601 5.837,-1.228 0.933,-1.83 -0.186,-4.27 -2.457,-5.427 -0.852,-0.435 -1.721,-0.637 -2.56,-0.614 -1.399,0.04 -2.643,0.7 -3.225,1.843 z m -16.583,37.423 c -0.71,0.024 -1.298,0.249 -1.535,0.717 -0.477,0.935 0.508,2.413 2.201,3.276 1.693,0.862 3.464,0.782 3.942,-0.154 0.477,-0.937 -0.51,-2.414 -2.201,-3.276 -0.847,-0.432 -1.695,-0.588 -2.407,-0.564 z m -5.836,4.606 v 12.082 l 9.83,-7.065 c 0,0 -1.333,-2.354 -4.25,-3.84 -2.917,-1.485 -5.58,-1.178 -5.58,-1.178 z"
       id="path85" />
  </g>
  <path
     fill="#ffd100"
     d="m 314.66833,427.03189 c 3.68111,0 7.30945,4.835 7.30945,4.835 V 313.95244 c 0,0 -3.62778,4.835 -7.30945,4.835 h -87.77 c -2.31222,0 -3.81777,0.71445 -5.28944,1.84889 -1.585,1.13389 -3.775,3.55 -5.40389,6.05723 -5.02944,7.74444 -10.33278,20.69222 -14.78944,30.48888 -3.71334,8.16334 -5.21167,11.48389 -10.46612,15.72723 5.25445,4.24389 6.75224,7.59277 10.46612,15.75611 4.45611,9.795 9.76,22.74333 14.78944,30.48834 1.62889,2.50832 3.81833,4.92445 5.40389,6.05777 1.47167,1.13444 2.97722,1.82 5.28944,1.82 z"
     id="path89"
     style="stroke-width:0.555556" />
  <path
     fill="#c8102e"
     d="m 265.01056,321.57467 h 49.65833 c 2.81055,0 4.52167,-1.42223 4.52167,-1.42223 v 105.51555 c 0,0 -1.71167,-1.42221 -4.52167,-1.42221 l -49.65833,0.03 -15.55556,-51.35056 z"
     id="path91"
     style="stroke-width:0.555556" />
  <path
     fill="#003da5"
     d="m 265.01056,424.27522 0.59722,-31.79666 v -39.10723 l -0.59722,-31.79666 h -38.11167 c -1.91556,0 -6.40278,1.98777 -12.115,13.45277 -9.44333,18.95056 -13.85222,33.51667 -19.22611,37.88278 5.37389,4.36556 9.78333,18.93168 19.22611,37.88278 5.71222,11.46444 10.19944,13.45222 12.115,13.45222 z"
     id="path93"
     style="stroke-width:0.555556" />
  <path
     d="m 266.99944,391.70967 c 0,0 4.62556,18.34389 24.23168,18.34389 15.31276,0 22.90944,-18.39056 26.56332,-18.91334 -6.32277,-1.79722 -15.05555,6.14334 -25.39722,6.14334 -13.38111,0 -14.02166,-9.86888 -14.02166,-9.86888 0,-2.30946 -1.64889,-3.24501 -1.64889,-4.15279 0.20277,-1.94278 2.67389,-2.85722 2.67389,-4.77833 0,-1.80389 -2.78723,-3.18889 -2.78723,-5.57389 0,-2.38445 2.78723,-3.74166 2.78723,-5.54611 0,-1.92 -2.47112,-2.835 -2.67389,-4.77778 0,-0.90778 1.64889,-1.84389 1.64889,-4.15334 0,0 0.64055,-9.86833 14.02166,-9.86833 10.34167,0 19.07556,7.94167 25.39722,6.14333 -3.65388,-0.52111 -11.25,-18.91166 -26.56333,-18.91166 -19.60612,0 -24.23167,18.34389 -24.23167,18.34389 l -9.52722,-5.23334 c 0,0 -0.37944,7.58057 -3.81166,11.60389 -4.13778,4.85167 -12.905,4.37945 -19.28278,4.37945 -5.025,0 -10.32778,-0.635 -12.51334,-3.21335 -2.93555,-3.46221 -3.15277,-5.80276 -6.59888,-5.80276 -2.87445,0 -3.45056,2.20944 -5.34723,5.80277 -2.42944,4.60388 -5.68777,4.38945 -5.68777,11.23334 0,6.845 3.25777,6.65833 5.68777,11.26277 1.89667,3.59334 2.47278,5.80223 5.34723,5.80223 3.4461,0 3.66333,-2.34111 6.59888,-5.80223 2.18667,-2.57833 7.48889,-3.21333 12.51334,-3.21333 6.37778,0 15.145,-0.47167 19.28278,4.37945 3.43166,4.02388 3.81166,11.60333 3.81166,11.60388 z"
     id="path95"
     style="stroke-width:0.555556" />
  <path
     d="m 316.43333,372.908 -9.045,-3.18611 4.12445,-8.67445 -8.675,4.12389 -3.21334,-9.04389 -3.21388,9.04389 -8.64612,-4.12389 4.12389,8.67444 -9.04389,3.18612 9.04389,3.21389 -4.12389,8.67444 8.64612,-4.12333 3.21388,9.04389 3.21334,-9.04389 8.675,4.12333 -4.12445,-8.67443 z m -50.82777,-19.53889 c 0,0 2.76889,-11.32611 8.36166,-15.55667 -6.65333,-7.39611 -8.95889,-16.24 -8.95889,-16.24 0,0 -4.16554,9.22612 -9.47111,16.24 4.63111,3.23167 10.06834,15.55667 10.06834,15.55667 z m 0,39.10556 c 0,0 -5.43667,12.32555 -10.06834,15.55777 5.30556,7.01278 9.47111,16.23834 9.47111,16.23834 0,0 2.30611,-8.84278 8.95889,-16.23834 -5.59222,-4.23055 -8.36166,-15.55777 -8.36166,-15.55777 z M 253.55,358.008 l -4.40778,-4.40833 -4.40833,4.40833 4.40833,4.40833 z m 0,29.83333 -4.40778,-4.40777 -4.40833,4.40777 4.40833,4.40834 z m -25.73889,-30.94278 c -5.56944,10e-6 -8.50389,-0.53999 -8.50389,-0.53999 0,0 1.82945,6.21444 8.13389,7.45222 2.95557,0.58 13.84333,1.22611 15.69945,-1.76389 l 1.59277,-8.10556 c -2.16611,0.87556 -8.87611,2.95723 -16.92222,2.95722 z M 243.14,383.80189 c -1.85556,-2.98945 -12.74333,-2.34333 -15.69944,-1.76333 -6.30445,1.23723 -8.13389,7.45166 -8.13389,7.45166 0,0 2.93444,-0.54 8.50389,-0.54 8.04611,0 14.75666,2.08167 16.92222,2.95778 z m -0.315,-46.01333 c -0.70109,-2.795 -3.54722,-4.48389 -6.34222,-3.78223 -0.42775,0.10737 -0.82277,0.28392 -1.19445,0.48335 a 5.1411111,5.1411111 0 0 0 0.25611,-1.28001 5.3055556,5.3055556 0 0 0 0,-0.54 c -0.0889,-2.645 -2.16833,-4.85 -4.86388,-5.03389 -2.87445,-0.19667 -5.34945,1.98833 -5.54612,4.86389 a 5.2183333,5.2183333 0 0 0 0.0572,1.25055 5.1205556,5.1205556 0 0 0 -1.10889,-0.625 c -2.67389,-1.07611 -5.75056,0.22722 -6.82667,2.90111 -1.075,2.67334 0.25611,5.72111 2.92945,6.79667 a 5.0372222,5.0372222 0 0 0 1.22333,0.31333 5.1538889,5.1538889 0 0 0 -0.93833,0.88111 c -1.84889,2.21056 -1.55612,5.51723 0.65388,7.36612 a 5.2022222,5.2022222 0 0 0 7.33778,-0.65444 c 0.28,-0.33445 0.5,-0.70555 0.68222,-1.08055 a 5.1755556,5.1755556 0 0 0 0.54,1.16554 c 1.53056,2.44167 4.78278,3.18056 7.22445,1.64945 1.67833,-1.05223 2.54111,-2.90112 2.41722,-4.74945 a 5.2583333,5.2583333 0 0 0 -0.79667,-2.44611 5.1833333,5.1833333 0 0 0 -0.79611,-0.995 5.2422222,5.2422222 0 0 0 1.27945,-0.14222 c 2.44612,-0.6133 4.05833,-2.86166 3.95389,-5.29 a 5.29,5.29 0 0 0 -0.14167,-1.05222 z m -15.18611,55.45556 c -5.32611,0.565 -9.78833,4.89332 -11.06333,10.23832 1.49277,-0.91277 3.15666,-1.51944 4.92,-1.70665 6.31666,-0.66946 11.43388,4.21554 11.43388,10.89277 0,1.05222 -0.13,2.07166 -0.37055,3.07111 3.85944,-2.35389 6.54167,-6.78611 6.54167,-11.60389 -5.6e-4,-6.67667 -5.14612,-11.56278 -11.46167,-10.89166 z"
     id="path97"
     style="stroke-width:0.555556" />
  <g
     fill="#ffd100"
     id="g116"
     transform="matrix(0,0.55555556,-0.55555556,0,500,-124.992)">
    <path
       d="m 847.592,373.684 c 0,18.128 9.667,28.821 22.576,28.821 2.462,0 5.155,3.328 7.475,3.328 3.782,0 6.298,-4.198 8.601,-4.198 2.927,0 4.9,4.607 9.982,4.607 5.083,0 7.107,-4.607 10.034,-4.607 2.302,0 4.818,4.198 8.6,4.198 2.321,0 5.012,-3.328 7.475,-3.328 12.909,0 22.577,-10.693 22.577,-28.821 0,-14.784 -12.416,-32.81 -11.058,-35.734 0,0 24.214,17.369 24.214,37.832 0,32.963 -33.429,41.109 -33.429,41.109 l 7.525,16.944 c 0,0 -10.362,1.554 -16.689,6.656 -8.439,6.805 -8.55,25.191 -8.55,37.626 0,14.648 0.545,20.855 5.837,24.829 5.58,4.193 9.777,5.096 9.777,9.369 0,3.723 -4.345,5.246 -9.983,7.73 -6.413,2.827 -7.052,7.731 -16.33,7.731 -9.279,0 -9.867,-4.904 -16.28,-7.731 -5.637,-2.484 -9.983,-4.006 -9.983,-7.73 0,-4.273 4.197,-5.176 9.777,-9.369 5.292,-3.974 5.836,-10.181 5.836,-24.829 0,-12.435 -0.11,-30.821 -8.549,-37.626 -6.328,-5.104 -16.689,-6.656 -16.689,-6.656 l 7.524,-16.944 c 0,0 -33.428,-8.145 -33.428,-41.109 0,-20.463 24.215,-37.832 24.215,-37.832 1.358,2.924 -11.057,20.95 -11.057,35.734 z M 883.58,509.81 c -6.567,0 -10.75,1.386 -10.75,3.379 0,1.994 4.184,3.328 10.75,3.328 1.75,0 3.737,-1.019 3.737,-3.328 0,-2.309 -1.988,-3.379 -3.737,-3.379 z m 25.34,0 c -1.75,0 -3.737,1.071 -3.737,3.379 -10e-4,2.309 1.987,3.328 3.737,3.328 6.568,0 10.75,-1.333 10.75,-3.328 0,-1.994 -4.183,-3.379 -10.75,-3.379 z"
       id="path99" />
    <path
       d="m 896.28,341.38 3.686,10.394 9.931,-4.761 -4.71,9.982 10.342,3.687 -10.342,3.686 4.71,9.931 -9.931,-4.71 -3.737,10.341 -3.686,-10.341 -9.931,4.71 4.71,-9.931 -10.341,-3.686 10.341,-3.687 -4.71,-9.982 9.931,4.761 z m -82.743,81.899 c 0,0 12.609,6.28 18.943,11.877 l 0.357,0.307 0.204,-0.255 c 5.986,-6.871 17.098,-12.696 17.098,-12.696 0,0 -10.676,-2.945 -17.405,-10.648 -7.111,7.248 -19.197,11.415 -19.197,11.415 z m 165.411,0.016 c 0,0 -12.609,6.28 -18.943,11.877 l -0.357,0.307 -0.204,-0.255 c -5.986,-6.871 -17.098,-12.696 -17.098,-12.696 0,0 10.676,-2.945 17.405,-10.648 7.111,7.248 19.197,11.415 19.197,11.415 z M 869.4,447.4 l 4.147,4.145 -4.147,4.199 -4.198,-4.199 z m 53.7,0 4.199,4.145 -4.199,4.199 -4.146,-4.199 z m -48.067,18.119 c 2.897,3.998 2.405,10.462 2.405,19.455 0,9.067 -6.808,12.541 -6.808,12.541 0,-21.794 -2.247,-27.034 -3.43,-33.635 z M 925.3,463.88 c -1.185,6.602 -3.429,11.841 -3.429,33.634 0,0 -6.809,-3.474 -6.809,-12.541 0,-8.993 -0.492,-15.455 2.406,-19.454 z"
       id="path101" />
    <path
       id="b"
       d="m 842.832,472.128 c 0.204,0.816 0.226,1.618 0.153,2.407 -0.06,0.654 -0.234,1.248 -0.46,1.842 -1.133,-0.414 -2.359,-0.615 -3.635,-0.615 -3.159,0 -5.987,1.39 -7.935,3.585 a 7.308,7.308 0 0 1 -1.33,-1.536 c -0.42,-0.649 -0.775,-1.359 -0.973,-2.15 -0.982,-3.913 1.411,-7.876 5.324,-8.857 0.488,-0.124 1,-0.185 1.484,-0.204 a 7.29,7.29 0 0 1 7.372,5.528 z" />
    <use
       xlink:href="#b"
       transform="rotate(72,838.89,486.468)"
       id="use104" />
    <use
       xlink:href="#b"
       transform="rotate(144,838.89,486.468)"
       id="use106" />
    <use
       xlink:href="#b"
       transform="rotate(-144,838.89,486.468)"
       id="use108" />
    <use
       xlink:href="#b"
       transform="rotate(-72,838.89,486.468)"
       id="use110" />
    <circle
       cx="838.89001"
       cy="486.46799"
       r="7.0650001"
       id="circle112" />
    <path
       d="m 962.925,476.942 c -11.729,2.268 -20.17,12.628 -18.942,24.727 -3.738,-3.096 -6.473,-7.266 -6.962,-11.877 -0.951,-8.979 5.571,-15.922 15.41,-15.922 3.761,0 7.375,1.152 10.494,3.072 z"
       id="path114" />
  </g>
</svg>
