<?xml version="1.0" encoding="UTF-8" standalone="no"?>
<svg
   viewBox="0 0 500 750"
   version="1.1"
   id="svg59"
   sodipodi:docname="MLT_portrait.svg"
   inkscape:version="1.2.2 (b0a8486541, 2022-12-01)"
   width="500"
   height="750"
   xmlns:inkscape="http://www.inkscape.org/namespaces/inkscape"
   xmlns:sodipodi="http://sodipodi.sourceforge.net/DTD/sodipodi-0.dtd"
   xmlns:xlink="http://www.w3.org/1999/xlink"
   xmlns="http://www.w3.org/2000/svg"
   xmlns:svg="http://www.w3.org/2000/svg">
  <defs
     id="defs63" />
  <sodipodi:namedview
     id="namedview61"
     pagecolor="#ffffff"
     bordercolor="#000000"
     borderopacity="0.25"
     inkscape:showpageshadow="2"
     inkscape:pageopacity="0.0"
     inkscape:pagecheckerboard="0"
     inkscape:deskcolor="#d1d1d1"
     showgrid="false"
     inkscape:zoom="0.55625733"
     inkscape:cx="-63.819383"
     inkscape:cy="100.67283"
     inkscape:window-width="1340"
     inkscape:window-height="1041"
     inkscape:window-x="576"
     inkscape:window-y="0"
     inkscape:window-maximized="1"
     inkscape:current-layer="svg59" />
  <path
     fill="#c8102e"
     d="M 500,0 V 750 H 0 V 0 Z"
     id="path2"
     style="stroke-width:0.833333" />
  <path
     fill="#ffffff"
     d="M 500,0 V 375 H 0 V 0 Z"
     id="path4"
     style="stroke-width:0.833333" />
  <path
     fill="#c8102e"
     d="m 18.51941,69.02208 v 37.88084 h 37.87917 c 0,6.31166 6.313333,12.62583 12.626667,12.62583 v 37.87833 h 37.876663 v -37.87833 c 6.31334,0 12.62667,-6.31417 12.62667,-12.62583 h 37.87917 V 69.02208 h -37.87917 c 0,-6.31166 -6.31333,-12.62583 -12.62667,-12.62583 V 18.51792 H 69.025247 v 37.87833 c -6.313334,0 -12.626667,6.31417 -12.626667,12.62583 z"
     id="path6"
     style="stroke-width:0.833333" />
  <path
     fill="#96877d"
     d="m 21.048165,71.546665 v 32.830825 h 37.876667 c 0,6.31167 6.313333,12.625 12.626666,12.625 v 37.87834 h 32.826662 v -37.87834 c 6.31333,0 12.62667,-6.31416 12.62667,-12.625 h 37.87666 V 71.546665 h -37.87666 c 0,-6.31167 -6.31334,-12.62583 -12.62667,-12.62583 V 21.042495 H 71.551498 v 37.87834 c -6.313333,0 -12.626666,6.31416 -12.626666,12.62583 z"
     id="path8"
     style="stroke-width:0.833333" />
  <path
     fill="#cccccc"
     d="m 22.30941,72.80958 v 30.30334 h 37.87667 c 0,6.31166 6.313333,12.6275 12.626667,12.6275 v 37.87833 h 30.301663 v -37.87833 c 6.31334,0 12.62667,-6.31667 12.62667,-12.6275 h 37.87667 V 72.80958 h -37.87667 c 0,-6.31166 -6.31333,-12.625 -12.62667,-12.625 V 22.30625 H 72.812747 v 37.87833 c -6.313334,0 -12.626667,6.31417 -12.626667,12.625 z"
     id="path10"
     style="stroke-width:0.833333" />
  <g
     id="a"
     fill="#d0d0d0"
     transform="matrix(0,0.83333333,-0.83333333,0,175.92733,-5.7997505e-6)">
    <path
       fill="#96877d"
       d="m 84.536,71.681 c 2.663,2.663 1.943,7.7 -1.607,11.25 -3.55,3.55 -8.587,4.27 -11.25,1.607 -2.662,-2.662 -1.942,-7.7 1.608,-11.25 3.55,-3.55 8.587,-4.27 11.249,-1.607 z"
       id="path12" />
    <path
       d="m 71.143,79.715 1.071,-1.072 4.286,2.142 -2.143,-4.285 1.071,-1.072 4.286,8.57 -8.571,-4.285 z m 6.429,-6.428 1.071,-1.071 6.429,6.428 L 84,79.715 Z"
       id="path14" />
  </g>
  <use
     xlink:href="#a"
     transform="rotate(90,87.96315,87.962499)"
     id="use17" />
  <use
     xlink:href="#a"
     transform="rotate(180,87.963153,87.962497)"
     id="use19" />
  <use
     xlink:href="#a"
     transform="rotate(-90,87.963156,87.962495)"
     id="use21" />
  <g
     fill="none"
     stroke="#96877d"
     stroke-width="0.514"
     id="g27"
     transform="matrix(0.83333333,0,0,0.83333333,6.6444394e-4,-0.00166575)">
    <circle
       cx="105.555"
       cy="105.557"
       r="31.822001"
       id="circle23" />
    <circle
       cx="105.555"
       cy="105.557"
       r="24.245001"
       id="circle25" />
  </g>
  <circle
     cx="66.502335"
     cy="77.861664"
     r="1.2625"
     id="circle29"
     style="stroke-width:0.833333" />
  <circle
     cx="66.502335"
     cy="98.0625"
     r="1.2625"
     id="circle31"
     style="stroke-width:0.833333" />
  <path
     d="m 86.768,108.8014 v 1.31667 h -1.683333 c -1.683334,0 -1.683334,1.31666 0,1.31666 H 86.768 v 1.31667 c 0.0058,1.36333 1.469167,1.52917 1.576667,0.11417 l 0.106666,-1.42334 h 1.683334 c 1.683333,0 1.683333,-1.31666 0,-1.31666 h -1.683334 v -1.31667 c 0,-1.31667 -1.683333,-1.31667 -1.683333,0 z M 62.938,93.876402 64.674667,93.462232 64.483,92.658072 c -0.04417,-0.185 -0.116667,-0.31 -0.219167,-0.37667 -0.101666,-0.0667 -0.276666,-0.085 -0.525,-0.0558 l -0.02833,-0.12083 1.495,-0.35584 0.02917,0.12 c -0.171673,0.0433 -0.291673,0.0958 -0.362506,0.15747 a 0.43416667,0.43416667 0 0 0 -0.138334,0.21833 c -0.0225,0.085 -0.01667,0.20084 0.01917,0.34834 l 0.191667,0.805 1.3875,-0.33084 c 0.224163,-0.0533 0.36833,-0.1025 0.43333,-0.14833 a 0.3,0.3 0 0 0 0.1075,-0.17 0.635,0.635 0 0 0 0.0067,-0.31833 l -0.03833,-0.15917 0.120834,-0.0292 0.451666,1.89583 -0.12,0.0292 -0.0375,-0.15666 c -0.04337,-0.1825 -0.12837,-0.3025 -0.254203,-0.35917 -0.0825,-0.0358 -0.255834,-0.0217 -0.520834,0.0417 l -2.853333,0.68 c -0.224167,0.0533 -0.368333,0.1025 -0.433333,0.1475 a 0.30166667,0.30166667 0 0 0 -0.108334,0.16667 0.6225,0.6225 0 0 0 -0.0067,0.31916 l 0.0375,0.15584 -0.1208,0.0292 -0.783333,-3.28667 0.960833,-0.27417 0.02667,0.11417 c -0.1925,0.10583 -0.328333,0.2075 -0.4075,0.305 a 0.66583333,0.66583333 0 0 0 -0.144167,0.3275 c -0.01667,0.12 0.0017,0.295 0.05667,0.525 l 0.2325,0.975 z m -1.118333,-7.835 c 0.03333,-0.58833 0.285,-1.08583 0.756666,-1.49167 0.470834,-0.40666 1.041667,-0.59083 1.71,-0.55333 0.688334,0.0392 1.248334,0.28833 1.678334,0.74917 0.43,0.46 0.628333,0.99916 0.593333,1.61666 -0.035,0.62417 -0.286667,1.13584 -0.754167,1.53584 -0.4675,0.4 -1.053333,0.57916 -1.758333,0.53916 -0.719167,-0.04 -1.293333,-0.31833 -1.72,-0.83416 a 2.1733333,2.1733333 0 0 1 -0.505833,-1.56167 z m 0.24,0.0775 c -0.0225,0.40583 0.11,0.73917 0.396666,1.00167 0.3575,0.32666 0.8975,0.51 1.619167,0.55 0.74,0.0417 1.318333,-0.0833 1.735833,-0.37834 a 1.175,1.175 0 0 0 0.508334,-0.93666 1.3183333,1.3183333 0 0 0 -0.438334,-1.08334 c -0.316666,-0.29583 -0.833333,-0.46416 -1.548333,-0.505 -0.775,-0.0433 -1.3625,0.0767 -1.760833,0.36084 -0.316667,0.2275 -0.4875,0.55833 -0.5125,0.99083 z m 6.578333,-8.2925 -0.430833,1.13333 -2.531667,0.68084 a 7.3375,7.3375 0 0 1 -0.1275,0.34916 3.5425,3.5425 0 0 1 -0.04167,0.095 l 1.233334,0.46917 c 0.266666,0.10167 0.444166,0.13583 0.530833,0.10167 0.122503,-0.0442 0.213336,-0.14584 0.27417,-0.30417 l 0.0625,-0.16583 0.116666,0.0442 -0.6925,1.81833 -0.116666,-0.0442 0.06083,-0.15917 c 0.06833,-0.18 0.05917,-0.33 -0.02833,-0.45166 -0.04833,-0.0683 -0.193334,-0.14917 -0.435,-0.24167 L 63.7705,80.108072 c -0.266667,-0.10167 -0.444167,-0.13584 -0.530833,-0.10167 -0.123334,0.0467 -0.215,0.15 -0.275834,0.31083 l -0.06083,0.15917 -0.116667,-0.0442 0.589167,-1.54583 c 0.171667,-0.45 0.330833,-0.77083 0.478333,-0.95917 0.146667,-0.18916 0.336667,-0.325 0.57,-0.40666 0.233334,-0.0817 0.471667,-0.0767 0.716667,0.0167 0.26,0.0992 0.454167,0.27 0.581667,0.51333 0.126666,0.24333 0.1625,0.55833 0.105833,0.945 l 1.550833,-0.4125 c 0.355834,-0.0942 0.6075,-0.19583 0.754167,-0.30417 0.146667,-0.10916 0.276667,-0.275 0.389167,-0.49666 l 0.116666,0.0442 z m -3.328333,2.18333 a 3.15,3.15 0 0 1 0.07,-0.17416 c 0.153333,-0.405 0.1825,-0.74334 0.085,-1.01584 a 0.9,0.9 0 0 0 -0.5525,-0.56333 c -0.265,-0.1 -0.511667,-0.1 -0.740834,0.003 -0.229166,0.1025 -0.395833,0.29083 -0.5,0.56417 -0.04583,0.12083 -0.08833,0.29166 -0.1275,0.51333 z m 9.663333,-15.04416 0.8775,1.13916 -0.09833,0.0642 c -0.293337,-0.23583 -0.568337,-0.37833 -0.82417,-0.42833 -0.368333,-0.0725 -0.730833,0.007 -1.086667,0.2375 -0.485833,0.31416 -0.730833,0.745 -0.735,1.29333 -0.0017,0.46167 0.1425,0.91583 0.433334,1.36417 0.235,0.36333 0.52,0.65 0.855,0.85833 0.334166,0.20833 0.660833,0.30833 0.979166,0.30083 a 1.5775,1.5775 0 0 0 0.836667,-0.24416 1.8458333,1.8458333 0 0 0 0.65,-0.72084 l -0.713333,-1.10166 c -0.123334,-0.19167 -0.219167,-0.3075 -0.286667,-0.3475 a 0.35,0.35 0 0 0 -0.221667,-0.0475 c -0.08083,0.008 -0.198333,0.0625 -0.3525,0.1625 l -0.06917,-0.1075 1.475833,-0.95584 0.06917,0.1075 -0.07,0.045 c -0.145834,0.095 -0.215,0.20834 -0.205834,0.34167 0.0075,0.0933 0.07667,0.24167 0.209167,0.44667 l 0.755833,1.16666 a 3.4025,3.4025 0 0 1 -0.4725,0.66834 c -0.175,0.19083 -0.390833,0.36916 -0.6475,0.535 -0.735832,0.47663 -1.448332,0.6033 -2.136665,0.3783 a 2.2541667,2.2541667 0 0 1 -1.224167,-0.94667 2.4416667,2.4416667 0 0 1 -0.3825,-1.12083 2.4583333,2.4583333 0 0 1 0.241667,-1.35333 c 0.173333,-0.34334 0.45,-0.63834 0.830833,-0.885 0.138333,-0.09 0.271667,-0.16 0.4,-0.21084 0.1275,-0.0517 0.32,-0.10583 0.578333,-0.16333 a 0.93333333,0.93333333 0 0 0 0.249167,-0.0775 0.13333333,0.13333333 0 0 0 0.05917,-0.10833 c 0.0042,-0.05 -0.0225,-0.12334 -0.07833,-0.2225 z m 7.394167,0.51166 -1.699167,0.4525 -0.113333,0.77167 c -0.02833,0.19 -0.03083,0.32667 -0.0083,0.41083 0.0175,0.0667 0.065,0.11667 0.141667,0.15084 0.07667,0.0342 0.224167,0.03 0.439167,-0.0108 l 0.03167,0.12 -1.381666,0.36666 -0.03167,-0.11916 c 0.175,-0.0808 0.2825,-0.155 0.3225,-0.22084 0.0825,-0.13333 0.148333,-0.375 0.1975,-0.72833 l 0.583333,-4.0225 0.113334,-0.03 2.498333,3.24417 c 0.201667,0.26083 0.363333,0.42166 0.4875,0.4825 0.123333,0.0608 0.275833,0.0725 0.458333,0.0358 l 0.03167,0.12 -1.731667,0.46 -0.03167,-0.12 c 0.1725,-0.055 0.283333,-0.115 0.330833,-0.18167 a 0.23333333,0.23333333 0 0 0 0.04417,-0.20583 c -0.025,-0.0942 -0.108334,-0.23334 -0.249167,-0.415 z m -0.154167,-0.215 -1.216667,-1.57583 -0.291666,1.97667 z m 8.0175,-0.0233 0.109167,0.0275 -0.435834,1.21667 -3.513333,-0.1375 0.005,-0.12333 0.17,0.007 c 0.191667,0.008 0.331667,-0.05 0.419167,-0.17167 0.05,-0.0692 0.07917,-0.23333 0.09,-0.49167 L 87.188,62.636402 c 0.01083,-0.28333 -0.01333,-0.46167 -0.0725,-0.535 -0.08333,-0.10167 -0.210833,-0.15583 -0.383333,-0.1625 l -0.17,-0.007 0.005,-0.12417 2.055,0.08 -0.005,0.12417 c -0.241667,-0.0117 -0.410834,0.004 -0.51,0.0467 a 0.40916667,0.40916667 0 0 0 -0.205834,0.17 c -0.03833,0.07 -0.06333,0.24 -0.07333,0.51 l -0.110833,2.85083 c -0.0083,0.185 0.0058,0.31334 0.03833,0.38334 0.025,0.0483 0.065,0.0842 0.12,0.10833 0.055,0.025 0.228333,0.0433 0.520833,0.0542 l 0.330834,0.0133 c 0.348333,0.0134 0.593333,-0.002 0.735833,-0.0483 a 0.95833333,0.95833333 0 0 0 0.395833,-0.25834 c 0.120834,-0.12583 0.245,-0.3275 0.371667,-0.60333 z m 6.0475,1.61834 0.0975,0.0567 -0.755833,1.04833 -3.338334,-1.10417 0.03917,-0.1175 0.161667,0.0533 c 0.183333,0.06 0.3325,0.0442 0.45,-0.0483 0.06667,-0.0533 0.141666,-0.20333 0.2225,-0.44916 l 0.92,-2.78167 c 0.08917,-0.26917 0.115,-0.4475 0.07833,-0.535 -0.05167,-0.12084 -0.159167,-0.20834 -0.3225,-0.26167 l -0.1625,-0.0542 0.03917,-0.1175 1.9525,0.64583 -0.03917,0.11667 c -0.228333,-0.0767 -0.395833,-0.10834 -0.5025,-0.095 a 0.41,0.41 0 0 0 -0.245,0.10583 c -0.05667,0.0567 -0.126667,0.21333 -0.211667,0.47 l -0.895833,2.70834 c -0.05833,0.17666 -0.08167,0.30333 -0.06917,0.38 a 0.23916667,0.23916667 0 0 0 0.085,0.1375 c 0.04583,0.0383 0.208334,0.10416 0.485834,0.19583 l 0.314166,0.10417 c 0.330834,0.10833 0.570834,0.16166 0.720834,0.15666 0.15,-0.004 0.3,-0.05 0.451666,-0.13833 0.150834,-0.0875 0.325834,-0.24667 0.525,-0.47667 z m 4.87417,2.58083 -1.435,-1.01583 -0.665837,0.40666 c -0.163333,0.1 -0.270833,0.18584 -0.320833,0.25667 -0.04,0.0567 -0.04833,0.125 -0.025,0.20667 0.02333,0.0808 0.12,0.19083 0.289167,0.33 l -0.07167,0.10083 -1.166667,-0.82584 0.07167,-0.10166 c 0.174167,0.0833 0.3,0.11833 0.375833,0.10666 0.155,-0.0217 0.383334,-0.12666 0.685834,-0.31416 l 3.463333,-2.12834 0.0958,0.0683 -0.89166,3.99667 c -0.0717,0.32083 -0.0917,0.54833 -0.0592,0.6825 0.0325,0.13333 0.12083,0.25833 0.26667,0.375 l -0.0725,0.10083 -1.4625,-1.035 0.0717,-0.10083 c 0.15334,0.0967 0.27,0.1425 0.35167,0.1375 a 0.23333333,0.23333333 0 0 0 0.18667,-0.0975 c 0.0567,-0.08 0.11,-0.23333 0.15916,-0.4575 z m 0.0667,-0.25667 0.43167,-1.9425 -1.70583,1.04167 z m 5.38584,0.9925 0.73333,0.99 -1.08333,4.25834 2.10416,-1.55834 c 0.225,-0.16666 0.34584,-0.29583 0.36417,-0.3875 0.0258,-0.12166 -0.0142,-0.255 -0.12,-0.39833 l -0.0942,-0.12667 0.1,-0.0733 0.94167,1.27 -0.1,0.0733 -0.0958,-0.12916 c -0.11417,-0.15417 -0.24167,-0.22917 -0.38334,-0.225 -0.0867,0.004 -0.2325,0.0808 -0.43666,0.23333 l -3.075,2.27917 -0.0725,-0.0975 1.15583,-4.58334 -2.24667,1.66584 c -0.225,0.16666 -0.34666,0.29416 -0.36666,0.38333 -0.025,0.125 0.0158,0.2575 0.12083,0.39917 l 0.0958,0.12916 -0.1,0.0733 -0.94083,-1.27 0.1,-0.0733 0.0933,0.12584 c 0.11584,0.15666 0.24417,0.2325 0.385,0.2275 0.0867,-0.003 0.2325,-0.08 0.43667,-0.23167 l 2.5375,-1.88083 a 2.1833333,2.1833333 0 0 0 0.0667,-0.4225 c -0.002,-0.0833 -0.025,-0.19167 -0.0683,-0.3225 a 1.0666667,1.0666667 0 0 0 -0.15166,-0.25417 z m 5.725,10.55167 -0.98667,0.4025 -0.0417,-0.12 c 0.1675,-0.0858 0.28334,-0.16167 0.345,-0.22833 a 0.6725,0.6725 0 0 0 0.1775,-0.35584 0.96,0.96 0 0 0 -0.0642,-0.45833 l -0.21417,-0.60333 -3.27083,1.15666 c -0.2625,0.0933 -0.41667,0.18 -0.46167,0.26 -0.0608,0.11084 -0.0608,0.25 -0.002,0.41667 l 0.0517,0.1475 -0.11667,0.0417 -0.64166,-1.815 0.11666,-0.0417 0.0533,0.15167 c 0.0642,0.18083 0.16416,0.29 0.3,0.32666 0.0842,0.0225 0.24583,-0.008 0.48583,-0.0933 l 3.27083,-1.1575 -0.18166,-0.51416 c -0.0708,-0.2 -0.13584,-0.3375 -0.195,-0.41084 a 0.62083333,0.62083333 0 0 0 -0.33,-0.2 c -0.14167,-0.0375 -0.31084,-0.0292 -0.51,0.025 l -0.0417,-0.12 1.02083,-0.305 1.23667,3.495 z m -3.59417,8.055 -0.0625,-1.21083 2.04,-1.645 a 7.395,7.395 0 0 1 -0.025,-0.37084 v -0.10417 l -1.31667,0.0683 c -0.28583,0.015 -0.46166,0.055 -0.5275,0.12167 -0.0942,0.0892 -0.13666,0.21917 -0.1275,0.38833 l 0.009,0.1775 -0.12333,0.007 -0.10167,-1.94333 0.12417,-0.007 0.008,0.17083 c 0.0108,0.19167 0.08,0.325 0.20833,0.40167 0.0725,0.0433 0.2375,0.0583 0.49584,0.045 l 2.93,-0.1525 c 0.285,-0.015 0.46083,-0.0558 0.52666,-0.12167 0.0942,-0.0917 0.13584,-0.22333 0.1275,-0.39583 l -0.009,-0.17 0.12416,-0.007 0.0858,1.65167 c 0.025,0.48166 0.008,0.83916 -0.05,1.07083 -0.0583,0.2325 -0.17834,0.43333 -0.35834,0.6025 -0.18,0.16917 -0.4,0.26 -0.66083,0.27417 a 1.06,1.06 0 0 1 -0.74,-0.235 c -0.215,-0.17084 -0.375,-0.445 -0.47917,-0.82167 l -1.2525,1.00417 c -0.2875,0.22916 -0.47583,0.42333 -0.56666,0.5825 -0.0908,0.15916 -0.14167,0.3625 -0.15584,0.61166 z m 2.16333,-3.34167 c 0.002,0.0417 0.003,0.0792 0.004,0.11 l 0.002,0.0775 c 0.0225,0.4325 0.13333,0.75334 0.3325,0.96334 0.19833,0.21 0.4425,0.3075 0.7325,0.29166 0.28333,-0.0142 0.50833,-0.115 0.67667,-0.30083 0.16833,-0.18667 0.24416,-0.42583 0.22916,-0.71833 a 2.9491667,2.9491667 0 0 0 -0.0908,-0.52167 l -1.88583,0.0983 z m 1.24584,9.34167 -0.4025,1.53167 -0.12,-0.0308 0.0225,-0.0842 c 0.015,-0.0567 0.0117,-0.145 -0.01,-0.26667 -0.0217,-0.12167 -0.0667,-0.2375 -0.13667,-0.35 a 3.0141667,3.0141667 0 0 0 -0.36754,-0.44667 l -1.39,-1.49667 -1.10167,-0.28916 c -0.27,-0.0708 -0.44666,-0.085 -0.52916,-0.0417 -0.1125,0.0583 -0.19167,0.175 -0.23834,0.3525 l -0.0375,0.1425 -0.11916,-0.0308 0.48916,-1.86667 0.12,0.0317 -0.0417,0.15583 c -0.0483,0.18584 -0.0267,0.3325 0.0658,0.43917 0.0567,0.0667 0.20833,0.13083 0.45417,0.19583 l 1.03916,0.2725 2.15674,-0.7225 c 0.25333,-0.0858 0.41333,-0.14667 0.48083,-0.18333 0.0667,-0.0367 0.16,-0.125 0.2775,-0.265 a 0.44583333,0.44583333 0 0 0 0.0817,-0.17917 l 0.11917,0.0317 -0.4925,1.87833 -0.12,-0.0308 0.025,-0.0975 a 0.58916667,0.58916667 0 0 0 0.003,-0.29917 0.23833333,0.23833333 0 0 0 -0.18083,-0.18333 c -0.0775,-0.0208 -0.235,0.008 -0.4725,0.0867 l -1.65667,0.545 1.12833,1.21666 c 0.16917,0.18334 0.30334,0.2875 0.4025,0.31417 a 0.3,0.3 0 0 0 0.32167,-0.11 0.67416667,0.67416667 0 0 0 0.10833,-0.25167 z"
     id="path33"
     style="stroke-width:0.833333" />
  <g
     fill="#96877d"
     stroke="#000000"
     stroke-width="0.203"
     id="g57"
     transform="matrix(0.83333333,0,0,0.83333333,1.034307,1.7771881)">
    <path
       d="m 122.85,110.19 c 0.532,-0.135 1.41,-0.026 1.41,-0.026 0,0 0.076,0.365 -0.155,0.487 0.257,0.148 1.18,0.103 1.18,0.103 0,0 -0.36,0.275 -0.539,0.384 0.333,0.032 0.743,0.461 0.743,0.461 0,0 -0.769,0.128 -1.102,-0.051 0.205,0.41 0.18,0.769 0.18,0.769 0,0 -1.243,-0.308 -1.691,-1.128 m -2.106,-1.699 c -0.301,0.743 -2.51,-0.64 -2.51,-0.64 0,0 0.973,1.543 2.433,1.716 M 93.181,123.66 h 25.877 l 1.998,-1.589 -3.33,-1.793 -5.125,-1.742 -2.05,-1.127 -3.791,0.204 -3.177,1.691 -4.356,0.513 -1.025,1.178 -3.228,0.257 -5.073,-0.103 8.455,1.333 -6.969,-0.36 z"
       id="path35" />
    <path
       d="m 107.12,116.23 c -3.241,-1.742 -4.189,2.55 -5.585,3.587 1.883,0.32 3.305,-1.448 4.919,-2.306 1.224,3.333 3.151,1.127 3.151,1.127 0,0 2.011,3.19 4.689,1.743 0.73,0.55 1.537,0.05 1.537,0.05 0,0 0.974,0.18 1.179,-0.256 0.512,0.18 1.076,-0.46 1.076,-0.46 0,0 1.114,0.012 1.332,-0.564 1.653,0.294 3.843,-3.382 3.843,-3.382 l 0.666,-1.281 0.974,-0.205 c 0,0 0.064,-0.64 -0.461,-0.615 -0.013,-0.385 -0.346,-0.59 -0.82,-0.513 0.09,-0.23 -0.256,-0.41 -0.256,-0.41 -0.923,0.231 -0.974,2.563 -0.974,2.563 0,0 -1.614,1.23 -2.203,1.537 -0.026,-1.333 -2.255,-3.139 -1.794,-3.997 0.461,-0.858 1.909,1.32 3.177,0.922 1.268,-0.397 1.891,-2.047 1.947,-3.33 -0.358,-0.872 -1.23,-2.306 -1.23,-2.306 l -0.82,-0.052 -0.717,-1.742 c 0,0 -1.511,0.987 -1.486,1.845 0.026,0.858 1.589,1.588 1.589,1.588 0,0 -0.901,0.564 -1.742,0.308 -0.077,0.87 1.024,0.704 1.434,0.717 0.205,0.628 0.82,0.974 0.82,0.974 0,0 0.385,0.96 -0.615,0.87 -0.999,-0.089 -2.178,-2.391 -3.587,-1.331 -1.498,1.127 0.667,3.177 0.667,3.177 0,0 -1.32,0.691 -2.101,2.46 -3.19,-2.691 -5.06,-1.436 -8.609,-0.718 z"
       id="path37" />
    <path
       d="m 102.46,111.67 c 1.332,1.255 0.403,3.342 0.922,3.74 0.551,0.423 1.333,-0.204 1.333,-0.204 1.396,0.371 3.894,-0.41 3.894,-0.41 1.1,0.615 0.665,-0.293 1.332,-0.256 0.59,1.511 2.562,1.23 2.562,1.23 0,0 -1.806,-1.845 -2.92,-2.358 -0.859,0.513 -3.357,0.59 -3.792,0.513 -0.486,-0.086 -0.18,-0.68 -0.41,-1.025 0.918,-0.894 0.192,-3.113 -0.308,-3.946 -2.036,-1.356 -4.468,0.968 -2.613,2.716 z m -8.861,-3.75 c -1.676,0.453 -4.583,-2.165 -5.942,-1.16 -1.359,1.005 -0.725,3.479 0.18,4.71 0.886,1.205 -1.294,1.64 -1.883,2.356 -0.554,0.673 0.18,1.45 0.18,1.45 l 0.617,0.398 -0.109,0.906 0.326,1.087 c 0,0 0.3,0.262 0.399,-0.073 0.28,0.281 0.03,1.093 0.725,1.196 -0.25,-0.52 0.18,-1.957 0.18,-1.957 0,0 1.215,0.091 1.523,-0.434 0.307,-0.526 -0.29,-1.667 -0.29,-1.667 h 0.362 c -0.408,-0.28 -0.544,-1.123 -0.544,-1.123 0,0 1.685,-0.535 1.667,-1.812 -0.018,-1.277 -2.735,-2.636 -1.739,-3.297 1.105,-0.734 3.025,1.902 4.674,0.688 1.632,-1.201 0.58,-0.036 0.58,-0.036 0,0 0.746,-1.678 -0.906,-1.232 z m 8.651,-17.949 c -2.242,-0.935 -6.822,-0.993 -9.377,-2.255 -1.121,0.07 -1.62,0.955 -1.666,1.307 -1.172,-0.058 -1.966,1.787 -1.793,2.152 -2.133,-0.864 -3.126,2.511 -2.434,3.203 -1.82,0.077 -1.595,2.402 -1.768,3.049 -0.583,1.415 0.13,1.892 1.281,1.383 0.173,0.615 -0.07,0.96 -0.59,1.076 3.158,3.614 4.943,-2.223 7.713,-2.203 3.458,-1.012 4.816,-2.716 4.816,-2.716 l 1.358,0.18 z"
       id="path39" />
    <circle
       cx="105.145"
       cy="87.384003"
       r="3.3050001"
       id="circle41" />
    <path
       d="m 99.33,113.41 c -2.05,-0.372 -5.444,-2.498 -5.79,-5.278 1.908,-7.494 11.755,-3.58 12.604,-9.217 -0.217,-3.719 0.45,-7.4 2.512,-10.511 0.96,-1.217 2.203,-1.537 2.203,-1.537 0,0 0.223,0.793 -0.102,1.332 1.626,-0.18 3.856,0.73 5.38,0.82 0.448,0.91 0.41,1.242 0.307,1.793 -0.102,0.551 -0.717,0.41 -0.717,0.41 -0.398,0.377 -0.876,0.761 -1.947,0.564 -0.807,0.615 -2.511,0.768 -2.511,0.768 0,0 3.561,3.754 2.972,4.92 0.743,0.345 1.845,1.998 1.845,1.998 0,0 2.434,-1.281 3.228,-2.46 1.41,0 3.715,1.474 4.868,1.64 1.41,1.14 2.818,2.306 2.818,2.306 0,0 -1.678,1.102 -2.408,-0.359 -0.884,0.077 -2.793,-2.037 -5.432,-1.383 -0.077,2.344 -2.664,3.997 -2.664,3.997 0,0 2.415,-0.338 3.74,0.46 a 139.033,139.033 0 0 0 3.382,2.717 l 1.794,3.074 c 0,0 -1.64,0.282 -2.255,-1.845 -0.615,1.717 -0.64,-1.063 -3.074,-2.357 -0.743,0.09 -1.115,0.141 -1.743,-0.358 -1.755,0.474 -3.83,1.498 -6.302,1.23 -1.755,0.55 -3.037,2.01 -4.817,2.818 -1.78,0.807 -2.306,0.41 -2.306,0.41 l -1.435,0.05 c -0.207,0.865 -0.09,2.179 -0.87,2.41 0.499,0.537 -0.36,2.83 -1.23,3.227 0.41,1.474 1.61,1.925 2.869,2.665 0,0 1.114,-0.512 1.844,0.154 0.73,0.666 1.486,2.562 1.486,2.562 0,0 -1.52,0.103 -1.998,-0.103 -0.479,-0.205 -0.525,-0.704 -1.076,-0.563 -3.472,-3.088 -5.302,-1.86 -5.637,-2.562 -0.342,-0.72 0.82,-2.6 0.462,-3.792 z"
       id="path43" />
    <path
       d="m 90.99,99.655 c 0.181,-0.226 1.45,0.254 1.45,0.254 l 2.318,1.449 4.71,3.044 1.667,2.427 -3.007,-0.978 -4.167,-3.587 -2.246,-1.45 c 0,0 -0.906,-0.933 -0.725,-1.16 z m 27.86,7.715 c -1.627,-0.41 -5.637,4.458 -5.637,4.458 l 3.024,3.28 c 0,0 0.09,-5.586 2.613,-7.738 z"
       id="path45" />
    <path
       d="m 99.023,93.789 c -0.887,1.137 -0.967,3.429 0.188,4.353 0.108,1.391 1.291,4.197 2.22,4.46 1.016,0.288 5.073,1.23 6.662,0.974 -0.304,2.575 1.716,4.641 3.587,5.995 -0.014,0.232 -0.017,0.514 0.199,0.8 0.21,0.276 1.192,0.326 1.235,0.174 0.436,0.613 2.548,0.882 2.7,0.609 0.15,-0.266 -3.105,-2.53 -3.827,-3.222 -0.613,-1.144 -1.775,-3.694 -2.05,-5.74 -1.597,-1.9 -4.34,-1.862 -4.34,-1.862 l 0.087,-3.723 0.154,-4.202 -1.486,-0.768 c 0,0 0.3,-0.137 0.461,-0.308 0.361,0.156 1.04,-0.57 1.128,-0.774 0.341,0.12 0.65,0.12 0.71,-0.064 0.054,-0.16 0.115,-0.879 0.24,-1.25 1.12,-0.987 -0.164,-3.08 -1.878,-3.114 -1.697,-0.035 -2.077,2.023 -2.044,2.18 0.159,0.645 0.125,0.97 0,1.126 -0.128,0.16 -0.718,0.513 -0.718,0.513 0,0 -0.948,-0.449 -2.1,0 -1.152,0.449 -2.448,1.05 -2.512,1.793 -0.525,0.077 -1.383,0.756 -1.537,1.333 -0.461,-0.09 -1.063,0.294 -2.05,1.896 -1.767,0.781 -1.87,4.56 -1.87,4.56 0,0 -0.477,0.695 -0.5,1.063 -0.022,0.369 0.167,0.705 0.398,0.64 0.025,0.244 0.346,0.462 0.486,0.385 0.052,0.244 0.403,0.38 0.615,0.346 0.02,0.167 0.702,0.125 0.756,-0.026 0.06,-0.166 -0.067,-0.996 0.013,-1.063 0.074,-0.06 0.64,0.372 0.794,0.256 0.154,-0.115 -0.03,-0.484 -0.115,-0.627 -0.077,-0.128 -0.564,-0.27 -0.679,-0.871 -0.115,-0.601 0.307,-1.435 0.307,-1.435 0,0 1.922,-1.512 2.14,-2.806 1.447,0.141 2.213,-1.124 2.626,-1.601 z"
       id="path47" />
    <path
       d="m 95.679,88.37 c 0.439,-1.073 2.024,-0.974 2.024,-0.974 0,0 0.567,-1.492 2.703,-0.602 0.804,-0.621 2.92,0.27 2.92,0.27 0,0 0.794,-1.057 1.833,-0.936 1.925,0.224 2.245,1.989 2.126,2.293 -1.053,0.266 -2.879,-0.856 -4.266,-0.538 -0.81,0.458 -2.123,0.942 -2.613,1.602 -1.284,0.134 -2.655,-1.182 -4.727,-1.115 z m 4.01,1.781 c 0.48,-0.295 1.659,-0.813 2.46,-0.18 0.839,0.904 2.126,1.743 2.126,1.743 l 1.46,0.615 0.667,0.41 -0.436,6.687 c -1.352,-1.383 -2.619,-1.626 -3.587,-3.254 -0.519,-0.698 -0.122,-2.376 -1.025,-3.485 -0.903,-1.108 -1.864,-1.857 -1.665,-2.536 z"
       id="path49" />
    <path
       d="m 103.2,92.082 c 0,0 0.765,-0.145 0.978,0.036 0.268,0.09 0.526,0.168 0.598,0.399 0.29,0.086 0.49,0.235 0.49,0.453 0.271,0.072 0.38,0.561 0.38,0.561 l -0.254,0.38 c 0,0 -0.29,-0.271 -0.326,-0.56 -0.183,-0.091 -0.589,-0.187 -0.688,-0.454 -0.317,-0.031 -0.521,-0.195 -0.58,-0.47 -0.295,0.067 -0.598,-0.345 -0.598,-0.345 z"
       id="path51" />
    <path
       d="m 109.68,87.717 c -0.436,-0.487 -1.204,-0.128 -1.204,-0.128 l -2.05,3.536 -0.897,0.743 -0.077,2.767 0.743,2.587 -0.256,1.999 c 0,0 1.032,-0.969 1.153,-1.512 0.116,-0.519 -0.384,-2.203 -0.384,-2.203 0,0 -0.615,-1.05 0.128,-2.998 0.743,-1.947 2.434,-3.561 2.844,-4.79 z"
       id="path53" />
    <path
       d="m 114.74,90.868 c 0,0 -3.2,4.573 -8.44,6.2 -1.447,0.346 -0.922,-3.382 -0.922,-3.382 l -0.359,0.103 c 0,0 -0.807,3.65 1.127,3.69 5.266,-1.038 9.216,-6.581 9.216,-6.581 l -0.63,-0.028 z m 2.17,26.292 c 0,0 -0.487,0.359 -1.127,0 -0.333,-0.769 -1.23,-0.82 -1.23,-0.82 0,0 -0.578,-1.66 -1.486,-1.178 -0.141,-0.859 -1.127,-0.41 -1.127,-0.41 0,0 -0.026,-1.243 -1.179,-1.076 0.384,-1.423 -1.589,-1.333 -1.589,-1.333 0,0 -0.064,-1.601 -2.972,-1.28 6.265,-2.806 11.222,4.406 11.222,4.406 m 2.458,2.301 c 0,0 1.448,1.627 2.203,1.64 0.756,0.013 0.82,-1.589 0.82,-1.589 0,0 0.244,0.692 0.615,0.513 -0.038,0.486 0.461,0.615 0.461,0.615 0,0 -1.306,3.036 -5.021,0.153 m -10.408,-0.712 -0.512,2.1 c 0,0 -0.654,0.59 -0.462,0.718 0.193,0.128 1.23,-0.205 1.23,-0.205 0,0 1.614,-0.192 2.101,-0.666 0.333,0.756 1.076,0.82 1.076,0.82 0,0 0.051,-0.32 -0.051,-0.512 0.359,0.064 0.666,-0.052 0.666,-0.052 0,0 0.205,-0.589 -0.256,-0.82 0.051,-0.435 0.269,-0.82 -0.512,-0.768 -0.577,0.615 -1.999,1.32 -2.358,1.076 -0.358,-0.243 1.41,-1.025 0.923,-2.05"
       id="path55" />
  </g>
</svg>
