<?xml version="1.0" encoding="UTF-8" standalone="no"?>
<svg
   viewBox="0 0 500 750"
   version="1.1"
   id="svg16"
   sodipodi:docname="SVK_portrait.svg"
   width="500"
   height="750"
   inkscape:version="1.2.2 (b0a8486541, 2022-12-01)"
   xmlns:inkscape="http://www.inkscape.org/namespaces/inkscape"
   xmlns:sodipodi="http://sodipodi.sourceforge.net/DTD/sodipodi-0.dtd"
   xmlns="http://www.w3.org/2000/svg"
   xmlns:svg="http://www.w3.org/2000/svg">
  <defs
     id="defs20" />
  <sodipodi:namedview
     id="namedview18"
     pagecolor="#ffffff"
     bordercolor="#000000"
     borderopacity="0.25"
     inkscape:showpageshadow="2"
     inkscape:pageopacity="0.0"
     inkscape:pagecheckerboard="0"
     inkscape:deskcolor="#d1d1d1"
     showgrid="false"
     inkscape:zoom="0.39333333"
     inkscape:cx="451.27119"
     inkscape:cy="300"
     inkscape:window-width="1340"
     inkscape:window-height="1041"
     inkscape:window-x="576"
     inkscape:window-y="0"
     inkscape:window-maximized="1"
     inkscape:current-layer="svg16" />
  <path
     fill="#ee1c25"
     d="M 0,750 V 0 h 500 v 750 z"
     id="path2"
     style="stroke-width:0.833333" />
  <path
     fill="#0b4ea2"
     d="M 0,750 V 0 h 333.33333 v 750 z"
     id="path4"
     style="stroke-width:0.833333" />
  <path
     fill="#ffffff"
     d="M 0,750 V 0 h 166.66667 v 750 z"
     id="path6"
     style="stroke-width:0.833333" />
  <path
     d="M 353.38001,92.019 H 147.44584 l -0.70583,6.71583 c -0.15334,1.45999 -3.75917,36.64249 -3.75917,113.90834 0,36.3025 12.27167,68.33332 36.475,95.19165 16.9575,18.82085 39.1025,34.66668 67.70167,48.44084 l 3.25,1.56751 3.255,-1.56751 c 28.6,-13.77499 50.75,-29.61999 67.705,-48.44084 24.20333,-26.86166 36.47583,-58.88915 36.47583,-95.19165 0,-77.265 -3.60667,-112.44835 -3.76,-113.90834 z"
     fill="#ffffff"
     id="path8"
     style="stroke-width:0.833333" />
  <path
     d="m 250.41167,349.51899 c -41.11666,-19.80499 -99.93083,-59.115 -99.93083,-136.87582 0,-77.76085 3.7175,-113.12417 3.7175,-113.12417 h 192.42917 c 0,0 3.71916,35.36417 3.71916,113.12417 0,77.76 -58.815,117.07083 -99.935,136.87582 z"
     fill="#ee1c25"
     id="path10"
     style="stroke-width:0.833333" />
  <path
     d="m 259.21751,192.25567 c 11.13333,0.18 32.85416,0.61583 52.19583,-5.85584 0,0 -0.51083,6.92167 -0.51083,14.98334 0,8.06165 0.51083,14.985 0.51083,14.985 -17.74083,-5.9375 -39.65,-6.06084 -52.19583,-5.90167 v 42.94917 H 241.63417 V 210.4665 c -12.54583,-0.15917 -34.45416,-0.0358 -52.19583,5.90167 0,0 0.51083,-6.92084 0.51083,-14.985 0,-8.06417 -0.51083,-14.98334 -0.51083,-14.98334 19.34167,6.47167 41.0625,6.03584 52.19583,5.85584 v -26.97334 c -10.1475,-0.09 -24.76916,0.39416 -41.3025,5.9275 0,0 0.51084,-6.92083 0.51084,-14.985 0,-8.06416 -0.51084,-14.98417 -0.51084,-14.98417 16.50834,5.52333 31.11334,6.01584 41.2575,5.92833 -0.52166,-17.08332 -5.5,-38.61 -5.5,-38.61 0,0 10.24084,0.79917 14.33334,0.79917 4.0925,0 14.33333,-0.79917 14.33333,-0.79917 0,0 -4.97417,21.52917 -5.5,38.60833 10.145,0.0883 24.75,-0.40415 41.2575,-5.92833 0,0 -0.51083,6.92084 -0.51083,14.98417 0,8.06334 0.51083,14.98501 0.51083,14.98501 -16.5325,-5.5325 -31.155,-6.0175 -41.3025,-5.9275 v 26.97499 z"
     fill="#ffffff"
     id="path12"
     style="stroke-width:0.833333" />
  <path
     d="m 250.39751,248.764 c -20.71001,0 -31.8025,28.72417 -31.8025,28.72417 a 25.388333,25.388333 0 0 0 -23.05084,-13.62 c -11.4325,0 -19.8575,10.16666 -25.21334,19.58333 20.79917,33.08333 53.98333,53.50583 80.06583,66.06749 26.0875,-12.5625 59.29334,-32.97582 80.09334,-66.06749 -5.35584,-9.41667 -13.78084,-19.58333 -25.21334,-19.58333 a 25.449167,25.449167 0 0 0 -23.0775,13.62 c 0,0 -11.08999,-28.72417 -31.80165,-28.72417 z"
     fill="#0b4ea2"
     id="path14"
     style="stroke-width:0.833333" />
</svg>
